<?xml version="1.0"?>
<svg xmlns="http://www.w3.org/2000/svg" width="1000" height="1000" viewBox="-500 -500 1000 1000">
    <path d="M-2,-0.20L2,-0.20C2,-0.20 2,-0.11 2,0C2,0.11 2,0.20 2,0.20L-2,0.20C-2,0.20 -2,0.11 -2,0C-2,-0.11 -2,-0.20 -2,-0.20Z" fill="#ff0000"/>
    <path d="M-7.50,1.15L7.50,1.15C7.50,1.15 7.50,1.24 7.50,1.35C7.50,1.46 7.50,1.55 7.50,1.55L-7.50,1.55C-7.50,1.55 -7.50,1.46 -7.50,1.35C-7.50,1.24 -7.50,1.15 -7.50,1.15Z" fill="#ff0000"/>
    <path d="M-7,2.50L7,2.50C7,2.50 7,2.59 7,2.70C7,2.81 7,2.90 7,2.90L-7,2.90C-7,2.90 -7,2.81 -7,2.70C-7,2.59 -7,2.50 -7,2.50Z" fill="#ff0000"/>
    <path d="M-3,3.84L3,3.84C3,3.84 3,3.93 3,4.04C3,4.16 3,4.24 3,4.24L-3,4.24C-3,4.24 -3,4.16 -3,4.04C-3,3.93 -3,3.84 -3,3.84Z" fill="#ff0000"/>
    <path d="M-1.50,5.19L1.50,5.19C1.50,5.19 1.50,5.28 1.50,5.39C1.50,5.50 1.50,5.59 1.50,5.59L-1.50,5.59C-1.50,5.59 -1.50,5.50 -1.50,5.39C-1.50,5.28 -1.50,5.19 -1.50,5.19Z" fill="#ff0000"/>
    <path d="M-16,6.54L16,6.54C16,6.54 16,6.63 16,6.74C16,6.85 16,6.94 16,6.94L-16,6.94C-16,6.94 -16,6.85 -16,6.74C-16,6.63 -16,6.54 -16,6.54Z" fill="#ff0000"/>
    <path d="M-27.50,7.89L27.50,7.89C27.50,7.89 27.50,7.98 27.50,8.09C27.50,8.20 27.50,8.29 27.50,8.29L-27.50,8.29C-27.50,8.29 -27.50,8.20 -27.50,8.09C-27.50,7.98 -27.50,7.89 -27.50,7.89Z" fill="#ff0000"/>
    <path d="M-66,9.24L66,9.24C66,9.24 66,9.33 66,9.44C66,9.55 66,9.64 66,9.64L-66,9.64C-66,9.64 -66,9.55 -66,9.44C-66,9.33 -66,9.24 -66,9.24Z" fill="#ff0000"/>
    <path d="M-20.50,10.59L20.50,10.59C20.50,10.59 20.50,10.68 20.50,10.79C20.50,10.90 20.50,10.99 20.50,10.99L-20.50,10.99C-20.50,10.99 -20.50,10.90 -20.50,10.79C-20.50,10.68 -20.50,10.59 -20.50,10.59Z" fill="#ff0000"/>
    <path d="M-20.50,11.93L20.50,11.93C20.50,11.93 20.50,12.02 20.50,12.13C20.50,12.25 20.50,12.33 20.50,12.33L-20.50,12.33C-20.50,12.33 -20.50,12.25 -20.50,12.13C-20.50,12.02 -20.50,11.93 -20.50,11.93Z" fill="#ff0000"/>
    <path d="M-4.50,13.28L4.50,13.28C4.50,13.28 4.50,13.37 4.50,13.48C4.50,13.59 4.50,13.68 4.50,13.68L-4.50,13.68C-4.50,13.68 -4.50,13.59 -4.50,13.48C-4.50,13.37 -4.50,13.28 -4.50,13.28Z" fill="#ff0000"/>
    <path d="M-34,14.63L34,14.63C34,14.63 34,14.72 34,14.83C34,14.94 34,15.03 34,15.03L-34,15.03C-34,15.03 -34,14.94 -34,14.83C-34,14.72 -34,14.63 -34,14.63Z" fill="#ff0000"/>
    <path d="M-1.50,15.98L1.50,15.98C1.50,15.98 1.50,16.07 1.50,16.18C1.50,16.29 1.50,16.38 1.50,16.38L-1.50,16.38C-1.50,16.38 -1.50,16.29 -1.50,16.18C-1.50,16.07 -1.50,15.98 -1.50,15.98Z" fill="#ff0000"/>
    <path d="M-9.50,17.33L9.50,17.33C9.50,17.33 9.50,17.42 9.50,17.53C9.50,17.64 9.50,17.73 9.50,17.73L-9.50,17.73C-9.50,17.73 -9.50,17.64 -9.50,17.53C-9.50,17.42 -9.50,17.33 -9.50,17.33Z" fill="#ff0000"/>
    <path d="M-12,18.68L12,18.68C12,18.68 12,18.77 12,18.88C12,18.99 12,19.08 12,19.08L-12,19.08C-12,19.08 -12,18.99 -12,18.88C-12,18.77 -12,18.68 -12,18.68Z" fill="#ff0000"/>
    <path d="M-41,20.02L41,20.02C41,20.02 41,20.11 41,20.22C41,20.34 41,20.42 41,20.42L-41,20.42C-41,20.42 -41,20.34 -41,20.22C-41,20.11 -41,20.02 -41,20.02Z" fill="#ff0000"/>
    <path d="M-13.50,21.37L13.50,21.37C13.50,21.37 13.50,21.46 13.50,21.57C13.50,21.68 13.50,21.77 13.50,21.77L-13.50,21.77C-13.50,21.77 -13.50,21.68 -13.50,21.57C-13.50,21.46 -13.50,21.37 -13.50,21.37Z" fill="#ff0000"/>
    <path d="M-54,22.72L54,22.72C54,22.72 54,22.81 54,22.92C54,23.03 54,23.12 54,23.12L-54,23.12C-54,23.12 -54,23.03 -54,22.92C-54,22.81 -54,22.72 -54,22.72Z" fill="#ff0000"/>
    <path d="M-0.50,24.07L0.50,24.07C0.50,24.07 0.50,24.16 0.50,24.27C0.50,24.38 0.50,24.47 0.50,24.47L-0.50,24.47C-0.50,24.47 -0.50,24.38 -0.50,24.27C-0.50,24.16 -0.50,24.07 -0.50,24.07Z" fill="#ff0000"/>
    <path d="M-3,25.42L3,25.42C3,25.42 3,25.51 3,25.62C3,25.73 3,25.82 3,25.82L-3,25.82C-3,25.82 -3,25.73 -3,25.62C-3,25.51 -3,25.42 -3,25.42Z" fill="#ff0000"/>
    <path d="M-6,26.77L6,26.77C6,26.77 6,26.86 6,26.97C6,27.08 6,27.17 6,27.17L-6,27.17C-6,27.17 -6,27.08 -6,26.97C-6,26.86 -6,26.77 -6,26.77Z" fill="#ff0000"/>
    <path d="M-58,28.11L58,28.11C58,28.11 58,28.20 58,28.31C58,28.43 58,28.51 58,28.51L-58,28.51C-58,28.51 -58,28.43 -58,28.31C-58,28.20 -58,28.11 -58,28.11Z" fill="#ff0000"/>
    <path d="M-1.50,29.46L1.50,29.46C1.50,29.46 1.50,29.55 1.50,29.66C1.50,29.77 1.50,29.86 1.50,29.86L-1.50,29.86C-1.50,29.86 -1.50,29.77 -1.50,29.66C-1.50,29.55 -1.50,29.46 -1.50,29.46Z" fill="#ff0000"/>
    <path d="M-9,30.81L9,30.81C9,30.81 9,30.90 9,31.01C9,31.12 9,31.21 9,31.21L-9,31.21C-9,31.21 -9,31.12 -9,31.01C-9,30.90 -9,30.81 -9,30.81Z" fill="#ff0000"/>
    <path d="M-17.50,32.16L17.50,32.16C17.50,32.16 17.50,32.25 17.50,32.36C17.50,32.47 17.50,32.56 17.50,32.56L-17.50,32.56C-17.50,32.56 -17.50,32.47 -17.50,32.36C-17.50,32.25 -17.50,32.16 -17.50,32.16Z" fill="#ff0000"/>
    <path d="M-62.50,33.51L62.50,33.51C62.50,33.51 62.50,33.60 62.50,33.71C62.50,33.82 62.50,33.91 62.50,33.91L-62.50,33.91C-62.50,33.91 -62.50,33.82 -62.50,33.71C-62.50,33.60 -62.50,33.51 -62.50,33.51Z" fill="#ff0000"/>
    <path d="M-15.50,34.86L15.50,34.86C15.50,34.86 15.50,34.95 15.50,35.06C15.50,35.17 15.50,35.26 15.50,35.26L-15.50,35.26C-15.50,35.26 -15.50,35.17 -15.50,35.06C-15.50,34.95 -15.50,34.86 -15.50,34.86Z" fill="#ff0000"/>
    <path d="M-4,36.20L4,36.20C4,36.20 4,36.29 4,36.40C4,36.51 4,36.60 4,36.60L-4,36.60C-4,36.60 -4,36.51 -4,36.40C-4,36.29 -4,36.20 -4,36.20Z" fill="#ff0000"/>
    <path d="M-37.50,37.55L37.50,37.55C37.50,37.55 37.50,37.64 37.50,37.75C37.50,37.86 37.50,37.95 37.50,37.95L-37.50,37.95C-37.50,37.95 -37.50,37.86 -37.50,37.75C-37.50,37.64 -37.50,37.55 -37.50,37.55Z" fill="#ff0000"/>
    <path d="M-1.50,38.90L1.50,38.90C1.50,38.90 1.50,38.99 1.50,39.10C1.50,39.21 1.50,39.30 1.50,39.30L-1.50,39.30C-1.50,39.30 -1.50,39.21 -1.50,39.10C-1.50,38.99 -1.50,38.90 -1.50,38.90Z" fill="#ff0000"/>
    <path d="M-5,40.25L5,40.25C5,40.25 5,40.34 5,40.45C5,40.56 5,40.65 5,40.65L-5,40.65C-5,40.65 -5,40.56 -5,40.45C-5,40.34 -5,40.25 -5,40.25Z" fill="#ff0000"/>
    <path d="M-132,41.60L132,41.60C132,41.60 132,41.69 132,41.80C132,41.91 132,42.00 132,42.00L-132,42.00C-132,42.00 -132,41.91 -132,41.80C-132,41.69 -132,41.60 -132,41.60Z" fill="#ff0000"/>
    <path d="M-3.50,42.95L3.50,42.95C3.50,42.95 3.50,43.04 3.50,43.15C3.50,43.26 3.50,43.35 3.50,43.35L-3.50,43.35C-3.50,43.35 -3.50,43.26 -3.50,43.15C-3.50,43.04 -3.50,42.95 -3.50,42.95Z" fill="#ff0000"/>
    <path d="M-80,44.29L80,44.29C80,44.29 80,44.38 80,44.49C80,44.60 80,44.69 80,44.69L-80,44.69C-80,44.69 -80,44.60 -80,44.49C-80,44.38 -80,44.29 -80,44.29Z" fill="#ff0000"/>
    <path d="M-4.50,45.64L4.50,45.64C4.50,45.64 4.50,45.73 4.50,45.84C4.50,45.95 4.50,46.04 4.50,46.04L-4.50,46.04C-4.50,46.04 -4.50,45.95 -4.50,45.84C-4.50,45.73 -4.50,45.64 -4.50,45.64Z" fill="#ff0000"/>
    <path d="M-6,46.99L6,46.99C6,46.99 6,47.08 6,47.19C6,47.30 6,47.39 6,47.39L-6,47.39C-6,47.39 -6,47.30 -6,47.19C-6,47.08 -6,46.99 -6,46.99Z" fill="#ff0000"/>
    <path d="M-8.50,48.34L8.50,48.34C8.50,48.34 8.50,48.43 8.50,48.54C8.50,48.65 8.50,48.74 8.50,48.74L-8.50,48.74C-8.50,48.74 -8.50,48.65 -8.50,48.54C-8.50,48.43 -8.50,48.34 -8.50,48.34Z" fill="#ff0000"/>
    <path d="M-40,49.69L40,49.69C40,49.69 40,49.78 40,49.89C40,50.00 40,50.09 40,50.09L-40,50.09C-40,50.09 -40,50.00 -40,49.89C-40,49.78 -40,49.69 -40,49.69Z" fill="#ff0000"/>
    <path d="M-10.50,51.04L10.50,51.04C10.50,51.04 10.50,51.13 10.50,51.24C10.50,51.35 10.50,51.44 10.50,51.44L-10.50,51.44C-10.50,51.44 -10.50,51.35 -10.50,51.24C-10.50,51.13 -10.50,51.04 -10.50,51.04Z" fill="#ff0000"/>
    <path d="M-1,52.38L1,52.38C1,52.38 1,52.47 1,52.58C1,52.69 1,52.78 1,52.78L-1,52.78C-1,52.78 -1,52.69 -1,52.58C-1,52.47 -1,52.38 -1,52.38Z" fill="#ff0000"/>
    <path d="M-2.50,53.73L2.50,53.73C2.50,53.73 2.50,53.82 2.50,53.93C2.50,54.04 2.50,54.13 2.50,54.13L-2.50,54.13C-2.50,54.13 -2.50,54.04 -2.50,53.93C-2.50,53.82 -2.50,53.73 -2.50,53.73Z" fill="#ff0000"/>
    <path d="M-0.50,55.08L0.50,55.08C0.50,55.08 0.50,55.17 0.50,55.28C0.50,55.39 0.50,55.48 0.50,55.48L-0.50,55.48C-0.50,55.48 -0.50,55.39 -0.50,55.28C-0.50,55.17 -0.50,55.08 -0.50,55.08Z" fill="#ff0000"/>
    <path d="M-14,56.43L14,56.43C14,56.43 14,56.52 14,56.63C14,56.74 14,56.83 14,56.83L-14,56.83C-14,56.83 -14,56.74 -14,56.63C-14,56.52 -14,56.43 -14,56.43Z" fill="#ff0000"/>
    <path d="M-4,57.78L4,57.78C4,57.78 4,57.87 4,57.98C4,58.09 4,58.18 4,58.18L-4,58.18C-4,58.18 -4,58.09 -4,57.98C-4,57.87 -4,57.78 -4,57.78Z" fill="#ff0000"/>
    <path d="M-33,59.13L33,59.13C33,59.13 33,59.22 33,59.33C33,59.44 33,59.53 33,59.53L-33,59.53C-33,59.53 -33,59.44 -33,59.33C-33,59.22 -33,59.13 -33,59.13Z" fill="#ff0000"/>
    <path d="M-3,60.47L3,60.47C3,60.47 3,60.56 3,60.67C3,60.78 3,60.87 3,60.87L-3,60.87C-3,60.87 -3,60.78 -3,60.67C-3,60.56 -3,60.47 -3,60.47Z" fill="#ff0000"/>
    <path d="M-3.50,61.82L3.50,61.82C3.50,61.82 3.50,61.91 3.50,62.02C3.50,62.13 3.50,62.22 3.50,62.22L-3.50,62.22C-3.50,62.22 -3.50,62.13 -3.50,62.02C-3.50,61.91 -3.50,61.82 -3.50,61.82Z" fill="#ff0000"/>
    <path d="M-0.50,63.17L0.50,63.17C0.50,63.17 0.50,63.26 0.50,63.37C0.50,63.48 0.50,63.57 0.50,63.57L-0.50,63.57C-0.50,63.57 -0.50,63.48 -0.50,63.37C-0.50,63.26 -0.50,63.17 -0.50,63.17Z" fill="#ff0000"/>
    <path d="M-14,64.52L14,64.52C14,64.52 14,64.61 14,64.72C14,64.83 14,64.92 14,64.92L-14,64.92C-14,64.92 -14,64.83 -14,64.72C-14,64.61 -14,64.52 -14,64.52Z" fill="#ff0000"/>
    <path d="M-3.50,65.87L3.50,65.87C3.50,65.87 3.50,65.96 3.50,66.07C3.50,66.18 3.50,66.27 3.50,66.27L-3.50,66.27C-3.50,66.27 -3.50,66.18 -3.50,66.07C-3.50,65.96 -3.50,65.87 -3.50,65.87Z" fill="#ff0000"/>
    <path d="M-28.50,67.22L28.50,67.22C28.50,67.22 28.50,67.31 28.50,67.42C28.50,67.53 28.50,67.62 28.50,67.62L-28.50,67.62C-28.50,67.62 -28.50,67.53 -28.50,67.42C-28.50,67.31 -28.50,67.22 -28.50,67.22Z" fill="#ff0000"/>
    <path d="M-7,68.56L7,68.56C7,68.56 7,68.65 7,68.76C7,68.87 7,68.96 7,68.96L-7,68.96C-7,68.96 -7,68.87 -7,68.76C-7,68.65 -7,68.56 -7,68.56Z" fill="#ff0000"/>
    <path d="M-25.50,69.91L25.50,69.91C25.50,69.91 25.50,70.00 25.50,70.11C25.50,70.22 25.50,70.31 25.50,70.31L-25.50,70.31C-25.50,70.31 -25.50,70.22 -25.50,70.11C-25.50,70.00 -25.50,69.91 -25.50,69.91Z" fill="#ff0000"/>
    <path d="M-1,71.26L1,71.26C1,71.26 1,71.35 1,71.46C1,71.57 1,71.66 1,71.66L-1,71.66C-1,71.66 -1,71.57 -1,71.46C-1,71.35 -1,71.26 -1,71.26Z" fill="#ff0000"/>
    <path d="M-1.50,72.61L1.50,72.61C1.50,72.61 1.50,72.70 1.50,72.81C1.50,72.92 1.50,73.01 1.50,73.01L-1.50,73.01C-1.50,73.01 -1.50,72.92 -1.50,72.81C-1.50,72.70 -1.50,72.61 -1.50,72.61Z" fill="#ff0000"/>
    <path d="M-1,73.96L1,73.96C1,73.96 1,74.05 1,74.16C1,74.27 1,74.36 1,74.36L-1,74.36C-1,74.36 -1,74.27 -1,74.16C-1,74.05 -1,73.96 -1,73.96Z" fill="#ff0000"/>
    <path d="M-6,75.31L6,75.31C6,75.31 6,75.40 6,75.51C6,75.62 6,75.71 6,75.71L-6,75.71C-6,75.71 -6,75.62 -6,75.51C-6,75.40 -6,75.31 -6,75.31Z" fill="#ff0000"/>
    <path d="M-6.50,76.65L6.50,76.65C6.50,76.65 6.50,76.74 6.50,76.85C6.50,76.96 6.50,77.05 6.50,77.05L-6.50,77.05C-6.50,77.05 -6.50,76.96 -6.50,76.85C-6.50,76.74 -6.50,76.65 -6.50,76.65Z" fill="#ff0000"/>
    <path d="M-7.50,78.00L7.50,78.00C7.50,78.00 7.50,78.09 7.50,78.20C7.50,78.31 7.50,78.40 7.50,78.40L-7.50,78.40C-7.50,78.40 -7.50,78.31 -7.50,78.20C-7.50,78.09 -7.50,78.00 -7.50,78.00Z" fill="#ff0000"/>
    <path d="M-0.50,79.35L0.50,79.35C0.50,79.35 0.50,79.44 0.50,79.55C0.50,79.66 0.50,79.75 0.50,79.75L-0.50,79.75C-0.50,79.75 -0.50,79.66 -0.50,79.55C-0.50,79.44 -0.50,79.35 -0.50,79.35Z" fill="#ff0000"/>
    <path d="M-18,80.70L18,80.70C18,80.70 18,80.79 18,80.90C18,81.01 18,81.10 18,81.10L-18,81.10C-18,81.10 -18,81.01 -18,80.90C-18,80.79 -18,80.70 -18,80.70Z" fill="#ff0000"/>
    <path d="M-5,82.05L5,82.05C5,82.05 5,82.14 5,82.25C5,82.36 5,82.45 5,82.45L-5,82.45C-5,82.45 -5,82.36 -5,82.25C-5,82.14 -5,82.05 -5,82.05Z" fill="#ff0000"/>
    <path d="M-32.50,83.40L32.50,83.40C32.50,83.40 32.50,83.49 32.50,83.60C32.50,83.71 32.50,83.80 32.50,83.80L-32.50,83.80C-32.50,83.80 -32.50,83.71 -32.50,83.60C-32.50,83.49 -32.50,83.40 -32.50,83.40Z" fill="#ff0000"/>
    <path d="M-4,84.74L4,84.74C4,84.74 4,84.83 4,84.94C4,85.05 4,85.14 4,85.14L-4,85.14C-4,85.14 -4,85.05 -4,84.94C-4,84.83 -4,84.74 -4,84.74Z" fill="#ff0000"/>
    <path d="M-11,86.09L11,86.09C11,86.09 11,86.18 11,86.29C11,86.40 11,86.49 11,86.49L-11,86.49C-11,86.49 -11,86.40 -11,86.29C-11,86.18 -11,86.09 -11,86.09Z" fill="#ff0000"/>
    <path d="M-1.50,87.44L1.50,87.44C1.50,87.44 1.50,87.53 1.50,87.64C1.50,87.75 1.50,87.84 1.50,87.84L-1.50,87.84C-1.50,87.84 -1.50,87.75 -1.50,87.64C-1.50,87.53 -1.50,87.44 -1.50,87.44Z" fill="#ff0000"/>
    <path d="M-17,88.79L17,88.79C17,88.79 17,88.88 17,88.99C17,89.10 17,89.19 17,89.19L-17,89.19C-17,89.19 -17,89.10 -17,88.99C-17,88.88 -17,88.79 -17,88.79Z" fill="#ff0000"/>
    <path d="M-3,90.14L3,90.14C3,90.14 3,90.23 3,90.34C3,90.45 3,90.54 3,90.54L-3,90.54C-3,90.54 -3,90.45 -3,90.34C-3,90.23 -3,90.14 -3,90.14Z" fill="#ff0000"/>
    <path d="M-21,91.49L21,91.49C21,91.49 21,91.57 21,91.69C21,91.80 21,91.89 21,91.89L-21,91.89C-21,91.89 -21,91.80 -21,91.69C-21,91.57 -21,91.49 -21,91.49Z" fill="#ff0000"/>
    <path d="M-26.50,92.83L26.50,92.83C26.50,92.83 26.50,92.92 26.50,93.03C26.50,93.14 26.50,93.23 26.50,93.23L-26.50,93.23C-26.50,93.23 -26.50,93.14 -26.50,93.03C-26.50,92.92 -26.50,92.83 -26.50,92.83Z" fill="#ff0000"/>
    <path d="M-5.50,94.18L5.50,94.18C5.50,94.18 5.50,94.27 5.50,94.38C5.50,94.49 5.50,94.58 5.50,94.58L-5.50,94.58C-5.50,94.58 -5.50,94.49 -5.50,94.38C-5.50,94.27 -5.50,94.18 -5.50,94.18Z" fill="#ff0000"/>
    <path d="M-35.50,95.53L35.50,95.53C35.50,95.53 35.50,95.62 35.50,95.73C35.50,95.84 35.50,95.93 35.50,95.93L-35.50,95.93C-35.50,95.93 -35.50,95.84 -35.50,95.73C-35.50,95.62 -35.50,95.53 -35.50,95.53Z" fill="#ff0000"/>
    <path d="M-26,96.88L26,96.88C26,96.88 26,96.97 26,97.08C26,97.19 26,97.28 26,97.28L-26,97.28C-26,97.28 -26,97.19 -26,97.08C-26,96.97 -26,96.88 -26,96.88Z" fill="#ff0000"/>
    <path d="M-10,98.23L10,98.23C10,98.23 10,98.32 10,98.43C10,98.54 10,98.63 10,98.63L-10,98.63C-10,98.63 -10,98.54 -10,98.43C-10,98.32 -10,98.23 -10,98.23Z" fill="#ff0000"/>
    <path d="M-49,99.58L49,99.58C49,99.58 49,99.66 49,99.78C49,99.89 49,99.98 49,99.98L-49,99.98C-49,99.98 -49,99.89 -49,99.78C-49,99.66 -49,99.58 -49,99.58Z" fill="#ff0000"/>
    <path d="M-24.50,100.92L24.50,100.92C24.50,100.92 24.50,101.01 24.50,101.12C24.50,101.23 24.50,101.32 24.50,101.32L-24.50,101.32C-24.50,101.32 -24.50,101.23 -24.50,101.12C-24.50,101.01 -24.50,100.92 -24.50,100.92Z" fill="#ff0000"/>
    <path d="M-70.50,102.27L70.50,102.27C70.50,102.27 70.50,102.36 70.50,102.47C70.50,102.58 70.50,102.67 70.50,102.67L-70.50,102.67C-70.50,102.67 -70.50,102.58 -70.50,102.47C-70.50,102.36 -70.50,102.27 -70.50,102.27Z" fill="#ff0000"/>
    <path d="M-118.50,103.62L118.50,103.62C118.50,103.62 118.50,103.71 118.50,103.82C118.50,103.93 118.50,104.02 118.50,104.02L-118.50,104.02C-118.50,104.02 -118.50,103.93 -118.50,103.82C-118.50,103.71 -118.50,103.62 -118.50,103.62Z" fill="#ff0000"/>
    <path d="M-94.50,104.97L94.50,104.97C94.50,104.97 94.50,105.06 94.50,105.17C94.50,105.28 94.50,105.37 94.50,105.37L-94.50,105.37C-94.50,105.37 -94.50,105.28 -94.50,105.17C-94.50,105.06 -94.50,104.97 -94.50,104.97Z" fill="#ff0000"/>
    <path d="M-5,106.32L5,106.32C5,106.32 5,106.41 5,106.52C5,106.63 5,106.72 5,106.72L-5,106.72C-5,106.72 -5,106.63 -5,106.52C-5,106.41 -5,106.32 -5,106.32Z" fill="#ff0000"/>
    <path d="M-61.50,107.67L61.50,107.67C61.50,107.67 61.50,107.75 61.50,107.87C61.50,107.98 61.50,108.07 61.50,108.07L-61.50,108.07C-61.50,108.07 -61.50,107.98 -61.50,107.87C-61.50,107.75 -61.50,107.67 -61.50,107.67Z" fill="#ff0000"/>
    <path d="M-4.50,109.01L4.50,109.01C4.50,109.01 4.50,109.10 4.50,109.21C4.50,109.32 4.50,109.41 4.50,109.41L-4.50,109.41C-4.50,109.41 -4.50,109.32 -4.50,109.21C-4.50,109.10 -4.50,109.01 -4.50,109.01Z" fill="#ff0000"/>
    <path d="M-3,110.36L3,110.36C3,110.36 3,110.45 3,110.56C3,110.67 3,110.76 3,110.76L-3,110.76C-3,110.76 -3,110.67 -3,110.56C-3,110.45 -3,110.36 -3,110.36Z" fill="#ff0000"/>
    <path d="M-26.50,111.71L26.50,111.71C26.50,111.71 26.50,111.80 26.50,111.91C26.50,112.02 26.50,112.11 26.50,112.11L-26.50,112.11C-26.50,112.11 -26.50,112.02 -26.50,111.91C-26.50,111.80 -26.50,111.71 -26.50,111.71Z" fill="#ff0000"/>
    <path d="M-8,113.06L8,113.06C8,113.06 8,113.15 8,113.26C8,113.37 8,113.46 8,113.46L-8,113.46C-8,113.46 -8,113.37 -8,113.26C-8,113.15 -8,113.06 -8,113.06Z" fill="#ff0000"/>
    <path d="M-55,114.41L55,114.41C55,114.41 55,114.50 55,114.61C55,114.72 55,114.81 55,114.81L-55,114.81C-55,114.81 -55,114.72 -55,114.61C-55,114.50 -55,114.41 -55,114.41Z" fill="#ff0000"/>
    <path d="M-1.50,115.76L1.50,115.76C1.50,115.76 1.50,115.84 1.50,115.96C1.50,116.07 1.50,116.16 1.50,116.16L-1.50,116.16C-1.50,116.16 -1.50,116.07 -1.50,115.96C-1.50,115.84 -1.50,115.76 -1.50,115.76Z" fill="#ff0000"/>
    <path d="M-1,117.10L1,117.10C1,117.10 1,117.19 1,117.30C1,117.41 1,117.50 1,117.50L-1,117.50C-1,117.50 -1,117.41 -1,117.30C-1,117.19 -1,117.10 -1,117.10Z" fill="#ff0000"/>
    <path d="M-4.50,118.45L4.50,118.45C4.50,118.45 4.50,118.54 4.50,118.65C4.50,118.76 4.50,118.85 4.50,118.85L-4.50,118.85C-4.50,118.85 -4.50,118.76 -4.50,118.65C-4.50,118.54 -4.50,118.45 -4.50,118.45Z" fill="#ff0000"/>
    <path d="M-4,119.80L4,119.80C4,119.80 4,119.89 4,120C4,120.11 4,120.20 4,120.20L-4,120.20C-4,120.20 -4,120.11 -4,120C-4,119.89 -4,119.80 -4,119.80Z" fill="#ff0000"/>
    <path d="M-2.50,121.15L2.50,121.15C2.50,121.15 2.50,121.24 2.50,121.35C2.50,121.46 2.50,121.55 2.50,121.55L-2.50,121.55C-2.50,121.55 -2.50,121.46 -2.50,121.35C-2.50,121.24 -2.50,121.15 -2.50,121.15Z" fill="#ff0000"/>
    <path d="M-2.50,122.50L2.50,122.50C2.50,122.50 2.50,122.59 2.50,122.70C2.50,122.81 2.50,122.90 2.50,122.90L-2.50,122.90C-2.50,122.90 -2.50,122.81 -2.50,122.70C-2.50,122.59 -2.50,122.50 -2.50,122.50Z" fill="#ff0000"/>
    <path d="M-51.50,123.84L51.50,123.84C51.50,123.84 51.50,123.93 51.50,124.04C51.50,124.16 51.50,124.24 51.50,124.24L-51.50,124.24C-51.50,124.24 -51.50,124.16 -51.50,124.04C-51.50,123.93 -51.50,123.84 -51.50,123.84Z" fill="#ff0000"/>
    <path d="M-7,125.19L7,125.19C7,125.19 7,125.28 7,125.39C7,125.50 7,125.59 7,125.59L-7,125.59C-7,125.59 -7,125.50 -7,125.39C-7,125.28 -7,125.19 -7,125.19Z" fill="#ff0000"/>
    <path d="M-72,126.54L72,126.54C72,126.54 72,126.63 72,126.74C72,126.85 72,126.94 72,126.94L-72,126.94C-72,126.94 -72,126.85 -72,126.74C-72,126.63 -72,126.54 -72,126.54Z" fill="#ff0000"/>
    <path d="M-7,127.89L7,127.89C7,127.89 7,127.98 7,128.09C7,128.20 7,128.29 7,128.29L-7,128.29C-7,128.29 -7,128.20 -7,128.09C-7,127.98 -7,127.89 -7,127.89Z" fill="#ff0000"/>
    <path d="M-62.50,129.24L62.50,129.24C62.50,129.24 62.50,129.33 62.50,129.44C62.50,129.55 62.50,129.64 62.50,129.64L-62.50,129.64C-62.50,129.64 -62.50,129.55 -62.50,129.44C-62.50,129.33 -62.50,129.24 -62.50,129.24Z" fill="#ff0000"/>
    <path d="M-7,130.59L7,130.59C7,130.59 7,130.68 7,130.79C7,130.90 7,130.99 7,130.99L-7,130.99C-7,130.99 -7,130.90 -7,130.79C-7,130.68 -7,130.59 -7,130.59Z" fill="#ff0000"/>
    <path d="M-9,131.93L9,131.93C9,131.93 9,132.02 9,132.13C9,132.25 9,132.33 9,132.33L-9,132.33C-9,132.33 -9,132.25 -9,132.13C-9,132.02 -9,131.93 -9,131.93Z" fill="#ff0000"/>
    <path d="M-1.50,133.28L1.50,133.28C1.50,133.28 1.50,133.37 1.50,133.48C1.50,133.59 1.50,133.68 1.50,133.68L-1.50,133.68C-1.50,133.68 -1.50,133.59 -1.50,133.48C-1.50,133.37 -1.50,133.28 -1.50,133.28Z" fill="#ff0000"/>
    <path d="M-2.50,134.63L2.50,134.63C2.50,134.63 2.50,134.72 2.50,134.83C2.50,134.94 2.50,135.03 2.50,135.03L-2.50,135.03C-2.50,135.03 -2.50,134.94 -2.50,134.83C-2.50,134.72 -2.50,134.63 -2.50,134.63Z" fill="#ff0000"/>
    <path d="M-0.50,135.98L0.50,135.98C0.50,135.98 0.50,136.07 0.50,136.18C0.50,136.29 0.50,136.38 0.50,136.38L-0.50,136.38C-0.50,136.38 -0.50,136.29 -0.50,136.18C-0.50,136.07 -0.50,135.98 -0.50,135.98Z" fill="#ff0000"/>
    <path d="M-25,137.33L25,137.33C25,137.33 25,137.42 25,137.53C25,137.64 25,137.73 25,137.73L-25,137.73C-25,137.73 -25,137.64 -25,137.53C-25,137.42 -25,137.33 -25,137.33Z" fill="#ff0000"/>
    <path d="M-7.50,138.68L7.50,138.68C7.50,138.68 7.50,138.77 7.50,138.88C7.50,138.99 7.50,139.08 7.50,139.08L-7.50,139.08C-7.50,139.08 -7.50,138.99 -7.50,138.88C-7.50,138.77 -7.50,138.68 -7.50,138.68Z" fill="#ff0000"/>
    <path d="M-11.50,140.02L11.50,140.02C11.50,140.02 11.50,140.11 11.50,140.22C11.50,140.34 11.50,140.42 11.50,140.42L-11.50,140.42C-11.50,140.42 -11.50,140.34 -11.50,140.22C-11.50,140.11 -11.50,140.02 -11.50,140.02Z" fill="#ff0000"/>
    <path d="M-3.50,141.37L3.50,141.37C3.50,141.37 3.50,141.46 3.50,141.57C3.50,141.68 3.50,141.77 3.50,141.77L-3.50,141.77C-3.50,141.77 -3.50,141.68 -3.50,141.57C-3.50,141.46 -3.50,141.37 -3.50,141.37Z" fill="#ff0000"/>
    <path d="M-22,142.72L22,142.72C22,142.72 22,142.81 22,142.92C22,143.03 22,143.12 22,143.12L-22,143.12C-22,143.12 -22,143.03 -22,142.92C-22,142.81 -22,142.72 -22,142.72Z" fill="#ff0000"/>
    <path d="M-0.50,144.07L0.50,144.07C0.50,144.07 0.50,144.16 0.50,144.27C0.50,144.38 0.50,144.47 0.50,144.47L-0.50,144.47C-0.50,144.47 -0.50,144.38 -0.50,144.27C-0.50,144.16 -0.50,144.07 -0.50,144.07Z" fill="#ff0000"/>
    <path d="M-0.50,145.42L0.50,145.42C0.50,145.42 0.50,145.51 0.50,145.62C0.50,145.73 0.50,145.82 0.50,145.82L-0.50,145.82C-0.50,145.82 -0.50,145.73 -0.50,145.62C-0.50,145.51 -0.50,145.42 -0.50,145.42Z" fill="#ff0000"/>
    <path d="M-114,146.77L114,146.77C114,146.77 114,146.86 114,146.97C114,147.08 114,147.17 114,147.17L-114,147.17C-114,147.17 -114,147.08 -114,146.97C-114,146.86 -114,146.77 -114,146.77Z" fill="#ff0000"/>
    <path d="M-8,148.11L8,148.11C8,148.11 8,148.20 8,148.31C8,148.43 8,148.51 8,148.51L-8,148.51C-8,148.51 -8,148.43 -8,148.31C-8,148.20 -8,148.11 -8,148.11Z" fill="#ff0000"/>
    <path d="M-32.50,149.46L32.50,149.46C32.50,149.46 32.50,149.55 32.50,149.66C32.50,149.77 32.50,149.86 32.50,149.86L-32.50,149.86C-32.50,149.86 -32.50,149.77 -32.50,149.66C-32.50,149.55 -32.50,149.46 -32.50,149.46Z" fill="#ff0000"/>
    <path d="M-5,150.81L5,150.81C5,150.81 5,150.90 5,151.01C5,151.12 5,151.21 5,151.21L-5,151.21C-5,151.21 -5,151.12 -5,151.01C-5,150.90 -5,150.81 -5,150.81Z" fill="#ff0000"/>
    <path d="M-9.50,152.16L9.50,152.16C9.50,152.16 9.50,152.25 9.50,152.36C9.50,152.47 9.50,152.56 9.50,152.56L-9.50,152.56C-9.50,152.56 -9.50,152.47 -9.50,152.36C-9.50,152.25 -9.50,152.16 -9.50,152.16Z" fill="#ff0000"/>
    <path d="M-117,153.51L117,153.51C117,153.51 117,153.60 117,153.71C117,153.82 117,153.91 117,153.91L-117,153.91C-117,153.91 -117,153.82 -117,153.71C-117,153.60 -117,153.51 -117,153.51Z" fill="#ff0000"/>
    <path d="M-37,154.86L37,154.86C37,154.86 37,154.95 37,155.06C37,155.17 37,155.26 37,155.26L-37,155.26C-37,155.26 -37,155.17 -37,155.06C-37,154.95 -37,154.86 -37,154.86Z" fill="#ff0000"/>
    <path d="M-2,156.20L2,156.20C2,156.20 2,156.29 2,156.40C2,156.51 2,156.60 2,156.60L-2,156.60C-2,156.60 -2,156.51 -2,156.40C-2,156.29 -2,156.20 -2,156.20Z" fill="#ff0000"/>
    <path d="M-42.50,157.55L42.50,157.55C42.50,157.55 42.50,157.64 42.50,157.75C42.50,157.86 42.50,157.95 42.50,157.95L-42.50,157.95C-42.50,157.95 -42.50,157.86 -42.50,157.75C-42.50,157.64 -42.50,157.55 -42.50,157.55Z" fill="#ff0000"/>
    <path d="M-35,158.90L35,158.90C35,158.90 35,158.99 35,159.10C35,159.21 35,159.30 35,159.30L-35,159.30C-35,159.30 -35,159.21 -35,159.10C-35,158.99 -35,158.90 -35,158.90Z" fill="#ff0000"/>
    <path d="M-52,160.25L52,160.25C52,160.25 52,160.34 52,160.45C52,160.56 52,160.65 52,160.65L-52,160.65C-52,160.65 -52,160.56 -52,160.45C-52,160.34 -52,160.25 -52,160.25Z" fill="#ff0000"/>
    <path d="M-0.50,161.60L0.50,161.60C0.50,161.60 0.50,161.69 0.50,161.80C0.50,161.91 0.50,162.00 0.50,162.00L-0.50,162.00C-0.50,162.00 -0.50,161.91 -0.50,161.80C-0.50,161.69 -0.50,161.60 -0.50,161.60Z" fill="#ff0000"/>
    <path d="M-8,162.95L8,162.95C8,162.95 8,163.04 8,163.15C8,163.26 8,163.35 8,163.35L-8,163.35C-8,163.35 -8,163.26 -8,163.15C-8,163.04 -8,162.95 -8,162.95Z" fill="#ff0000"/>
    <path d="M-52,164.29L52,164.29C52,164.29 52,164.38 52,164.49C52,164.60 52,164.69 52,164.69L-52,164.69C-52,164.69 -52,164.60 -52,164.49C-52,164.38 -52,164.29 -52,164.29Z" fill="#ff0000"/>
    <path d="M-101,165.64L101,165.64C101,165.64 101,165.73 101,165.84C101,165.95 101,166.04 101,166.04L-101,166.04C-101,166.04 -101,165.95 -101,165.84C-101,165.73 -101,165.64 -101,165.64Z" fill="#ff0000"/>
    <path d="M-6.50,166.99L6.50,166.99C6.50,166.99 6.50,167.08 6.50,167.19C6.50,167.30 6.50,167.39 6.50,167.39L-6.50,167.39C-6.50,167.39 -6.50,167.30 -6.50,167.19C-6.50,167.08 -6.50,166.99 -6.50,166.99Z" fill="#ff0000"/>
    <path d="M-1.50,168.34L1.50,168.34C1.50,168.34 1.50,168.43 1.50,168.54C1.50,168.65 1.50,168.74 1.50,168.74L-1.50,168.74C-1.50,168.74 -1.50,168.65 -1.50,168.54C-1.50,168.43 -1.50,168.34 -1.50,168.34Z" fill="#ff0000"/>
    <path d="M-11,169.69L11,169.69C11,169.69 11,169.78 11,169.89C11,170.00 11,170.09 11,170.09L-11,170.09C-11,170.09 -11,170.00 -11,169.89C-11,169.78 -11,169.69 -11,169.69Z" fill="#ff0000"/>
    <path d="M-26.50,171.04L26.50,171.04C26.50,171.04 26.50,171.13 26.50,171.24C26.50,171.35 26.50,171.44 26.50,171.44L-26.50,171.44C-26.50,171.44 -26.50,171.35 -26.50,171.24C-26.50,171.13 -26.50,171.04 -26.50,171.04Z" fill="#ff0000"/>
    <path d="M-5.50,172.38L5.50,172.38C5.50,172.38 5.50,172.47 5.50,172.58C5.50,172.69 5.50,172.78 5.50,172.78L-5.50,172.78C-5.50,172.78 -5.50,172.69 -5.50,172.58C-5.50,172.47 -5.50,172.38 -5.50,172.38Z" fill="#ff0000"/>
    <path d="M-1,173.73L1,173.73C1,173.73 1,173.82 1,173.93C1,174.04 1,174.13 1,174.13L-1,174.13C-1,174.13 -1,174.04 -1,173.93C-1,173.82 -1,173.73 -1,173.73Z" fill="#ff0000"/>
    <path d="M-4.50,175.08L4.50,175.08C4.50,175.08 4.50,175.17 4.50,175.28C4.50,175.39 4.50,175.48 4.50,175.48L-4.50,175.48C-4.50,175.48 -4.50,175.39 -4.50,175.28C-4.50,175.17 -4.50,175.08 -4.50,175.08Z" fill="#ff0000"/>
    <path d="M-7,176.43L7,176.43C7,176.43 7,176.52 7,176.63C7,176.74 7,176.83 7,176.83L-7,176.83C-7,176.83 -7,176.74 -7,176.63C-7,176.52 -7,176.43 -7,176.43Z" fill="#ff0000"/>
    <path d="M-18,177.78L18,177.78C18,177.78 18,177.87 18,177.98C18,178.09 18,178.18 18,178.18L-18,178.18C-18,178.18 -18,178.09 -18,177.98C-18,177.87 -18,177.78 -18,177.78Z" fill="#ff0000"/>
    <path d="M-40,179.13L40,179.13C40,179.13 40,179.22 40,179.33C40,179.44 40,179.53 40,179.53L-40,179.53C-40,179.53 -40,179.44 -40,179.33C-40,179.22 -40,179.13 -40,179.13Z" fill="#ff0000"/>
    <path d="M-20.50,180.47L20.50,180.47C20.50,180.47 20.50,180.56 20.50,180.67C20.50,180.78 20.50,180.87 20.50,180.87L-20.50,180.87C-20.50,180.87 -20.50,180.78 -20.50,180.67C-20.50,180.56 -20.50,180.47 -20.50,180.47Z" fill="#ff0000"/>
    <path d="M-5.50,181.82L5.50,181.82C5.50,181.82 5.50,181.91 5.50,182.02C5.50,182.13 5.50,182.22 5.50,182.22L-5.50,182.22C-5.50,182.22 -5.50,182.13 -5.50,182.02C-5.50,181.91 -5.50,181.82 -5.50,181.82Z" fill="#ff0000"/>
    <path d="M-50.50,183.17L50.50,183.17C50.50,183.17 50.50,183.26 50.50,183.37C50.50,183.48 50.50,183.57 50.50,183.57L-50.50,183.57C-50.50,183.57 -50.50,183.48 -50.50,183.37C-50.50,183.26 -50.50,183.17 -50.50,183.17Z" fill="#ff0000"/>
    <path d="M-30.50,184.52L30.50,184.52C30.50,184.52 30.50,184.61 30.50,184.72C30.50,184.83 30.50,184.92 30.50,184.92L-30.50,184.92C-30.50,184.92 -30.50,184.83 -30.50,184.72C-30.50,184.61 -30.50,184.52 -30.50,184.52Z" fill="#ff0000"/>
    <path d="M-2,185.87L2,185.87C2,185.87 2,185.96 2,186.07C2,186.18 2,186.27 2,186.27L-2,186.27C-2,186.27 -2,186.18 -2,186.07C-2,185.96 -2,185.87 -2,185.87Z" fill="#ff0000"/>
    <path d="M-2.50,187.22L2.50,187.22C2.50,187.22 2.50,187.31 2.50,187.42C2.50,187.53 2.50,187.62 2.50,187.62L-2.50,187.62C-2.50,187.62 -2.50,187.53 -2.50,187.42C-2.50,187.31 -2.50,187.22 -2.50,187.22Z" fill="#ff0000"/>
    <path d="M-3,188.56L3,188.56C3,188.56 3,188.65 3,188.76C3,188.87 3,188.96 3,188.96L-3,188.96C-3,188.96 -3,188.87 -3,188.76C-3,188.65 -3,188.56 -3,188.56Z" fill="#ff0000"/>
    <path d="M-3.50,189.91L3.50,189.91C3.50,189.91 3.50,190.00 3.50,190.11C3.50,190.22 3.50,190.31 3.50,190.31L-3.50,190.31C-3.50,190.31 -3.50,190.22 -3.50,190.11C-3.50,190.00 -3.50,189.91 -3.50,189.91Z" fill="#ff0000"/>
    <path d="M-5.50,191.26L5.50,191.26C5.50,191.26 5.50,191.35 5.50,191.46C5.50,191.57 5.50,191.66 5.50,191.66L-5.50,191.66C-5.50,191.66 -5.50,191.57 -5.50,191.46C-5.50,191.35 -5.50,191.26 -5.50,191.26Z" fill="#ff0000"/>
    <path d="M-8.50,192.61L8.50,192.61C8.50,192.61 8.50,192.70 8.50,192.81C8.50,192.92 8.50,193.01 8.50,193.01L-8.50,193.01C-8.50,193.01 -8.50,192.92 -8.50,192.81C-8.50,192.70 -8.50,192.61 -8.50,192.61Z" fill="#ff0000"/>
    <path d="M-2,193.96L2,193.96C2,193.96 2,194.05 2,194.16C2,194.27 2,194.36 2,194.36L-2,194.36C-2,194.36 -2,194.27 -2,194.16C-2,194.05 -2,193.96 -2,193.96Z" fill="#ff0000"/>
    <path d="M-8.50,195.31L8.50,195.31C8.50,195.31 8.50,195.40 8.50,195.51C8.50,195.62 8.50,195.71 8.50,195.71L-8.50,195.71C-8.50,195.71 -8.50,195.62 -8.50,195.51C-8.50,195.40 -8.50,195.31 -8.50,195.31Z" fill="#ff0000"/>
    <path d="M-9,196.65L9,196.65C9,196.65 9,196.74 9,196.85C9,196.96 9,197.05 9,197.05L-9,197.05C-9,197.05 -9,196.96 -9,196.85C-9,196.74 -9,196.65 -9,196.65Z" fill="#ff0000"/>
    <path d="M-0.50,198.00L0.50,198.00C0.50,198.00 0.50,198.09 0.50,198.20C0.50,198.31 0.50,198.40 0.50,198.40L-0.50,198.40C-0.50,198.40 -0.50,198.31 -0.50,198.20C-0.50,198.09 -0.50,198.00 -0.50,198.00Z" fill="#ff0000"/>
    <path d="M-1.50,199.35L1.50,199.35C1.50,199.35 1.50,199.44 1.50,199.55C1.50,199.66 1.50,199.75 1.50,199.75L-1.50,199.75C-1.50,199.75 -1.50,199.66 -1.50,199.55C-1.50,199.44 -1.50,199.35 -1.50,199.35Z" fill="#ff0000"/>
    <path d="M-0.50,200.70L0.50,200.70C0.50,200.70 0.50,200.79 0.50,200.90C0.50,201.01 0.50,201.10 0.50,201.10L-0.50,201.10C-0.50,201.10 -0.50,201.01 -0.50,200.90C-0.50,200.79 -0.50,200.70 -0.50,200.70Z" fill="#ff0000"/>
    <path d="M-1,202.05L1,202.05C1,202.05 1,202.14 1,202.25C1,202.36 1,202.45 1,202.45L-1,202.45C-1,202.45 -1,202.36 -1,202.25C-1,202.14 -1,202.05 -1,202.05Z" fill="#ff0000"/>
    <path d="M-32.50,203.40L32.50,203.40C32.50,203.40 32.50,203.49 32.50,203.60C32.50,203.71 32.50,203.80 32.50,203.80L-32.50,203.80C-32.50,203.80 -32.50,203.71 -32.50,203.60C-32.50,203.49 -32.50,203.40 -32.50,203.40Z" fill="#ff0000"/>
    <path d="M-7.50,204.74L7.50,204.74C7.50,204.74 7.50,204.83 7.50,204.94C7.50,205.05 7.50,205.14 7.50,205.14L-7.50,205.14C-7.50,205.14 -7.50,205.05 -7.50,204.94C-7.50,204.83 -7.50,204.74 -7.50,204.74Z" fill="#ff0000"/>
    <path d="M-9,206.09L9,206.09C9,206.09 9,206.18 9,206.29C9,206.40 9,206.49 9,206.49L-9,206.49C-9,206.49 -9,206.40 -9,206.29C-9,206.18 -9,206.09 -9,206.09Z" fill="#ff0000"/>
    <path d="M-8.50,207.44L8.50,207.44C8.50,207.44 8.50,207.53 8.50,207.64C8.50,207.75 8.50,207.84 8.50,207.84L-8.50,207.84C-8.50,207.84 -8.50,207.75 -8.50,207.64C-8.50,207.53 -8.50,207.44 -8.50,207.44Z" fill="#ff0000"/>
    <path d="M-17.50,208.79L17.50,208.79C17.50,208.79 17.50,208.88 17.50,208.99C17.50,209.10 17.50,209.19 17.50,209.19L-17.50,209.19C-17.50,209.19 -17.50,209.10 -17.50,208.99C-17.50,208.88 -17.50,208.79 -17.50,208.79Z" fill="#ff0000"/>
    <path d="M-9,210.14L9,210.14C9,210.14 9,210.23 9,210.34C9,210.45 9,210.54 9,210.54L-9,210.54C-9,210.54 -9,210.45 -9,210.34C-9,210.23 -9,210.14 -9,210.14Z" fill="#ff0000"/>
    <path d="M-0.50,211.49L0.50,211.49C0.50,211.49 0.50,211.57 0.50,211.69C0.50,211.80 0.50,211.89 0.50,211.89L-0.50,211.89C-0.50,211.89 -0.50,211.80 -0.50,211.69C-0.50,211.57 -0.50,211.49 -0.50,211.49Z" fill="#ff0000"/>
    <path d="M-11,212.83L11,212.83C11,212.83 11,212.92 11,213.03C11,213.14 11,213.23 11,213.23L-11,213.23C-11,213.23 -11,213.14 -11,213.03C-11,212.92 -11,212.83 -11,212.83Z" fill="#ff0000"/>
    <path d="M-5,214.18L5,214.18C5,214.18 5,214.27 5,214.38C5,214.49 5,214.58 5,214.58L-5,214.58C-5,214.58 -5,214.49 -5,214.38C-5,214.27 -5,214.18 -5,214.18Z" fill="#ff0000"/>
    <path d="M-1,215.53L1,215.53C1,215.53 1,215.62 1,215.73C1,215.84 1,215.93 1,215.93L-1,215.93C-1,215.93 -1,215.84 -1,215.73C-1,215.62 -1,215.53 -1,215.53Z" fill="#ff0000"/>
    <path d="M-5,216.88L5,216.88C5,216.88 5,216.97 5,217.08C5,217.19 5,217.28 5,217.28L-5,217.28C-5,217.28 -5,217.19 -5,217.08C-5,216.97 -5,216.88 -5,216.88Z" fill="#ff0000"/>
    <path d="M-2.50,218.23L2.50,218.23C2.50,218.23 2.50,218.32 2.50,218.43C2.50,218.54 2.50,218.63 2.50,218.63L-2.50,218.63C-2.50,218.63 -2.50,218.54 -2.50,218.43C-2.50,218.32 -2.50,218.23 -2.50,218.23Z" fill="#ff0000"/>
    <path d="M-84.50,219.58L84.50,219.58C84.50,219.58 84.50,219.66 84.50,219.78C84.50,219.89 84.50,219.98 84.50,219.98L-84.50,219.98C-84.50,219.98 -84.50,219.89 -84.50,219.78C-84.50,219.66 -84.50,219.58 -84.50,219.58Z" fill="#ff0000"/>
    <path d="M-44,220.92L44,220.92C44,220.92 44,221.01 44,221.12C44,221.23 44,221.32 44,221.32L-44,221.32C-44,221.32 -44,221.23 -44,221.12C-44,221.01 -44,220.92 -44,220.92Z" fill="#ff0000"/>
    <path d="M-0.50,222.27L0.50,222.27C0.50,222.27 0.50,222.36 0.50,222.47C0.50,222.58 0.50,222.67 0.50,222.67L-0.50,222.67C-0.50,222.67 -0.50,222.58 -0.50,222.47C-0.50,222.36 -0.50,222.27 -0.50,222.27Z" fill="#ff0000"/>
    <path d="M-4.50,223.62L4.50,223.62C4.50,223.62 4.50,223.71 4.50,223.82C4.50,223.93 4.50,224.02 4.50,224.02L-4.50,224.02C-4.50,224.02 -4.50,223.93 -4.50,223.82C-4.50,223.71 -4.50,223.62 -4.50,223.62Z" fill="#ff0000"/>
    <path d="M-5,224.97L5,224.97C5,224.97 5,225.06 5,225.17C5,225.28 5,225.37 5,225.37L-5,225.37C-5,225.37 -5,225.28 -5,225.17C-5,225.06 -5,224.97 -5,224.97Z" fill="#ff0000"/>
    <path d="M-1.50,226.32L1.50,226.32C1.50,226.32 1.50,226.41 1.50,226.52C1.50,226.63 1.50,226.72 1.50,226.72L-1.50,226.72C-1.50,226.72 -1.50,226.63 -1.50,226.52C-1.50,226.41 -1.50,226.32 -1.50,226.32Z" fill="#ff0000"/>
    <path d="M-65.50,227.67L65.50,227.67C65.50,227.67 65.50,227.75 65.50,227.87C65.50,227.98 65.50,228.07 65.50,228.07L-65.50,228.07C-65.50,228.07 -65.50,227.98 -65.50,227.87C-65.50,227.75 -65.50,227.67 -65.50,227.67Z" fill="#ff0000"/>
    <path d="M-1.50,229.01L1.50,229.01C1.50,229.01 1.50,229.10 1.50,229.21C1.50,229.32 1.50,229.41 1.50,229.41L-1.50,229.41C-1.50,229.41 -1.50,229.32 -1.50,229.21C-1.50,229.10 -1.50,229.01 -1.50,229.01Z" fill="#ff0000"/>
    <path d="M-9.50,230.36L9.50,230.36C9.50,230.36 9.50,230.45 9.50,230.56C9.50,230.67 9.50,230.76 9.50,230.76L-9.50,230.76C-9.50,230.76 -9.50,230.67 -9.50,230.56C-9.50,230.45 -9.50,230.36 -9.50,230.36Z" fill="#ff0000"/>
    <path d="M-3.50,231.71L3.50,231.71C3.50,231.71 3.50,231.80 3.50,231.91C3.50,232.02 3.50,232.11 3.50,232.11L-3.50,232.11C-3.50,232.11 -3.50,232.02 -3.50,231.91C-3.50,231.80 -3.50,231.71 -3.50,231.71Z" fill="#ff0000"/>
    <path d="M-24.50,233.06L24.50,233.06C24.50,233.06 24.50,233.15 24.50,233.26C24.50,233.37 24.50,233.46 24.50,233.46L-24.50,233.46C-24.50,233.46 -24.50,233.37 -24.50,233.26C-24.50,233.15 -24.50,233.06 -24.50,233.06Z" fill="#ff0000"/>
    <path d="M-9.50,234.41L9.50,234.41C9.50,234.41 9.50,234.50 9.50,234.61C9.50,234.72 9.50,234.81 9.50,234.81L-9.50,234.81C-9.50,234.81 -9.50,234.72 -9.50,234.61C-9.50,234.50 -9.50,234.41 -9.50,234.41Z" fill="#ff0000"/>
    <path d="M-30,235.76L30,235.76C30,235.76 30,235.84 30,235.96C30,236.07 30,236.16 30,236.16L-30,236.16C-30,236.16 -30,236.07 -30,235.96C-30,235.84 -30,235.76 -30,235.76Z" fill="#ff0000"/>
    <path d="M-12.50,237.10L12.50,237.10C12.50,237.10 12.50,237.19 12.50,237.30C12.50,237.41 12.50,237.50 12.50,237.50L-12.50,237.50C-12.50,237.50 -12.50,237.41 -12.50,237.30C-12.50,237.19 -12.50,237.10 -12.50,237.10Z" fill="#ff0000"/>
    <path d="M-13.50,238.45L13.50,238.45C13.50,238.45 13.50,238.54 13.50,238.65C13.50,238.76 13.50,238.85 13.50,238.85L-13.50,238.85C-13.50,238.85 -13.50,238.76 -13.50,238.65C-13.50,238.54 -13.50,238.45 -13.50,238.45Z" fill="#ff0000"/>
    <path d="M-71.50,239.80L71.50,239.80C71.50,239.80 71.50,239.89 71.50,240C71.50,240.11 71.50,240.20 71.50,240.20L-71.50,240.20C-71.50,240.20 -71.50,240.11 -71.50,240C-71.50,239.89 -71.50,239.80 -71.50,239.80Z" fill="#ff0000"/>
    <path d="M-0.50,241.15L0.50,241.15C0.50,241.15 0.50,241.24 0.50,241.35C0.50,241.46 0.50,241.55 0.50,241.55L-0.50,241.55C-0.50,241.55 -0.50,241.46 -0.50,241.35C-0.50,241.24 -0.50,241.15 -0.50,241.15Z" fill="#ff0000"/>
    <path d="M-4,242.50L4,242.50C4,242.50 4,242.59 4,242.70C4,242.81 4,242.90 4,242.90L-4,242.90C-4,242.90 -4,242.81 -4,242.70C-4,242.59 -4,242.50 -4,242.50Z" fill="#ff0000"/>
    <path d="M-41.50,243.84L41.50,243.84C41.50,243.84 41.50,243.93 41.50,244.04C41.50,244.16 41.50,244.24 41.50,244.24L-41.50,244.24C-41.50,244.24 -41.50,244.16 -41.50,244.04C-41.50,243.93 -41.50,243.84 -41.50,243.84Z" fill="#ff0000"/>
    <path d="M-28.50,245.19L28.50,245.19C28.50,245.19 28.50,245.28 28.50,245.39C28.50,245.50 28.50,245.59 28.50,245.59L-28.50,245.59C-28.50,245.59 -28.50,245.50 -28.50,245.39C-28.50,245.28 -28.50,245.19 -28.50,245.19Z" fill="#ff0000"/>
    <path d="M-12,246.54L12,246.54C12,246.54 12,246.63 12,246.74C12,246.85 12,246.94 12,246.94L-12,246.94C-12,246.94 -12,246.85 -12,246.74C-12,246.63 -12,246.54 -12,246.54Z" fill="#ff0000"/>
    <path d="M-5,247.89L5,247.89C5,247.89 5,247.98 5,248.09C5,248.20 5,248.29 5,248.29L-5,248.29C-5,248.29 -5,248.20 -5,248.09C-5,247.98 -5,247.89 -5,247.89Z" fill="#ff0000"/>
    <path d="M-8,249.24L8,249.24C8,249.24 8,249.33 8,249.44C8,249.55 8,249.64 8,249.64L-8,249.64C-8,249.64 -8,249.55 -8,249.44C-8,249.33 -8,249.24 -8,249.24Z" fill="#ff0000"/>
    <path d="M-10,250.59L10,250.59C10,250.59 10,250.68 10,250.79C10,250.90 10,250.99 10,250.99L-10,250.99C-10,250.99 -10,250.90 -10,250.79C-10,250.68 -10,250.59 -10,250.59Z" fill="#ff0000"/>
    <path d="M-15,251.93L15,251.93C15,251.93 15,252.02 15,252.13C15,252.25 15,252.33 15,252.33L-15,252.33C-15,252.33 -15,252.25 -15,252.13C-15,252.02 -15,251.93 -15,251.93Z" fill="#ff0000"/>
    <path d="M-72.50,253.28L72.50,253.28C72.50,253.28 72.50,253.37 72.50,253.48C72.50,253.59 72.50,253.68 72.50,253.68L-72.50,253.68C-72.50,253.68 -72.50,253.59 -72.50,253.48C-72.50,253.37 -72.50,253.28 -72.50,253.28Z" fill="#ff0000"/>
    <path d="M-2,254.63L2,254.63C2,254.63 2,254.72 2,254.83C2,254.94 2,255.03 2,255.03L-2,255.03C-2,255.03 -2,254.94 -2,254.83C-2,254.72 -2,254.63 -2,254.63Z" fill="#ff0000"/>
    <path d="M-2,255.98L2,255.98C2,255.98 2,256.07 2,256.18C2,256.29 2,256.38 2,256.38L-2,256.38C-2,256.38 -2,256.29 -2,256.18C-2,256.07 -2,255.98 -2,255.98Z" fill="#ff0000"/>
    <path d="M-9.50,257.33L9.50,257.33C9.50,257.33 9.50,257.42 9.50,257.53C9.50,257.64 9.50,257.73 9.50,257.73L-9.50,257.73C-9.50,257.73 -9.50,257.64 -9.50,257.53C-9.50,257.42 -9.50,257.33 -9.50,257.33Z" fill="#ff0000"/>
    <path d="M-0.50,258.68L0.50,258.68C0.50,258.68 0.50,258.77 0.50,258.88C0.50,258.99 0.50,259.08 0.50,259.08L-0.50,259.08C-0.50,259.08 -0.50,258.99 -0.50,258.88C-0.50,258.77 -0.50,258.68 -0.50,258.68Z" fill="#ff0000"/>
    <path d="M-4,260.02L4,260.02C4,260.02 4,260.11 4,260.22C4,260.34 4,260.42 4,260.42L-4,260.42C-4,260.42 -4,260.34 -4,260.22C-4,260.11 -4,260.02 -4,260.02Z" fill="#ff0000"/>
    <path d="M-57,261.37L57,261.37C57,261.37 57,261.46 57,261.57C57,261.68 57,261.77 57,261.77L-57,261.77C-57,261.77 -57,261.68 -57,261.57C-57,261.46 -57,261.37 -57,261.37Z" fill="#ff0000"/>
    <path d="M-13.50,262.72L13.50,262.72C13.50,262.72 13.50,262.81 13.50,262.92C13.50,263.03 13.50,263.12 13.50,263.12L-13.50,263.12C-13.50,263.12 -13.50,263.03 -13.50,262.92C-13.50,262.81 -13.50,262.72 -13.50,262.72Z" fill="#ff0000"/>
    <path d="M-12,264.07L12,264.07C12,264.07 12,264.16 12,264.27C12,264.38 12,264.47 12,264.47L-12,264.47C-12,264.47 -12,264.38 -12,264.27C-12,264.16 -12,264.07 -12,264.07Z" fill="#ff0000"/>
    <path d="M-8,265.42L8,265.42C8,265.42 8,265.51 8,265.62C8,265.73 8,265.82 8,265.82L-8,265.82C-8,265.82 -8,265.73 -8,265.62C-8,265.51 -8,265.42 -8,265.42Z" fill="#ff0000"/>
    <path d="M-13,266.77L13,266.77C13,266.77 13,266.86 13,266.97C13,267.08 13,267.17 13,267.17L-13,267.17C-13,267.17 -13,267.08 -13,266.97C-13,266.86 -13,266.77 -13,266.77Z" fill="#ff0000"/>
    <path d="M-59.50,268.11L59.50,268.11C59.50,268.11 59.50,268.20 59.50,268.31C59.50,268.43 59.50,268.51 59.50,268.51L-59.50,268.51C-59.50,268.51 -59.50,268.43 -59.50,268.31C-59.50,268.20 -59.50,268.11 -59.50,268.11Z" fill="#ff0000"/>
    <path d="M-8,269.46L8,269.46C8,269.46 8,269.55 8,269.66C8,269.77 8,269.86 8,269.86L-8,269.86C-8,269.86 -8,269.77 -8,269.66C-8,269.55 -8,269.46 -8,269.46Z" fill="#ff0000"/>
    <path d="M-64.50,270.81L64.50,270.81C64.50,270.81 64.50,270.90 64.50,271.01C64.50,271.12 64.50,271.21 64.50,271.21L-64.50,271.21C-64.50,271.21 -64.50,271.12 -64.50,271.01C-64.50,270.90 -64.50,270.81 -64.50,270.81Z" fill="#ff0000"/>
    <path d="M-74.50,272.16L74.50,272.16C74.50,272.16 74.50,272.25 74.50,272.36C74.50,272.47 74.50,272.56 74.50,272.56L-74.50,272.56C-74.50,272.56 -74.50,272.47 -74.50,272.36C-74.50,272.25 -74.50,272.16 -74.50,272.16Z" fill="#ff0000"/>
    <path d="M-7,273.51L7,273.51C7,273.51 7,273.60 7,273.71C7,273.82 7,273.91 7,273.91L-7,273.91C-7,273.91 -7,273.82 -7,273.71C-7,273.60 -7,273.51 -7,273.51Z" fill="#ff0000"/>
    <path d="M-3,274.86L3,274.86C3,274.86 3,274.95 3,275.06C3,275.17 3,275.26 3,275.26L-3,275.26C-3,275.26 -3,275.17 -3,275.06C-3,274.95 -3,274.86 -3,274.86Z" fill="#ff0000"/>
    <path d="M-112.50,276.20L112.50,276.20C112.50,276.20 112.50,276.29 112.50,276.40C112.50,276.51 112.50,276.60 112.50,276.60L-112.50,276.60C-112.50,276.60 -112.50,276.51 -112.50,276.40C-112.50,276.29 -112.50,276.20 -112.50,276.20Z" fill="#ff0000"/>
    <path d="M-34.50,277.55L34.50,277.55C34.50,277.55 34.50,277.64 34.50,277.75C34.50,277.86 34.50,277.95 34.50,277.95L-34.50,277.95C-34.50,277.95 -34.50,277.86 -34.50,277.75C-34.50,277.64 -34.50,277.55 -34.50,277.55Z" fill="#ff0000"/>
    <path d="M-2,278.90L2,278.90C2,278.90 2,278.99 2,279.10C2,279.21 2,279.30 2,279.30L-2,279.30C-2,279.30 -2,279.21 -2,279.10C-2,278.99 -2,278.90 -2,278.90Z" fill="#ff0000"/>
    <path d="M-9,280.25L9,280.25C9,280.25 9,280.34 9,280.45C9,280.56 9,280.65 9,280.65L-9,280.65C-9,280.65 -9,280.56 -9,280.45C-9,280.34 -9,280.25 -9,280.25Z" fill="#ff0000"/>
    <path d="M-8,281.60L8,281.60C8,281.60 8,281.69 8,281.80C8,281.91 8,282.00 8,282.00L-8,282.00C-8,282.00 -8,281.91 -8,281.80C-8,281.69 -8,281.60 -8,281.60Z" fill="#ff0000"/>
    <path d="M-11.50,282.95L11.50,282.95C11.50,282.95 11.50,283.04 11.50,283.15C11.50,283.26 11.50,283.35 11.50,283.35L-11.50,283.35C-11.50,283.35 -11.50,283.26 -11.50,283.15C-11.50,283.04 -11.50,282.95 -11.50,282.95Z" fill="#ff0000"/>
    <path d="M-4,284.29L4,284.29C4,284.29 4,284.38 4,284.49C4,284.60 4,284.69 4,284.69L-4,284.69C-4,284.69 -4,284.60 -4,284.49C-4,284.38 -4,284.29 -4,284.29Z" fill="#ff0000"/>
    <path d="M-10,285.64L10,285.64C10,285.64 10,285.73 10,285.84C10,285.95 10,286.04 10,286.04L-10,286.04C-10,286.04 -10,285.95 -10,285.84C-10,285.73 -10,285.64 -10,285.64Z" fill="#ff0000"/>
    <path d="M-9.50,286.99L9.50,286.99C9.50,286.99 9.50,287.08 9.50,287.19C9.50,287.30 9.50,287.39 9.50,287.39L-9.50,287.39C-9.50,287.39 -9.50,287.30 -9.50,287.19C-9.50,287.08 -9.50,286.99 -9.50,286.99Z" fill="#ff0000"/>
    <path d="M-0.50,288.34L0.50,288.34C0.50,288.34 0.50,288.43 0.50,288.54C0.50,288.65 0.50,288.74 0.50,288.74L-0.50,288.74C-0.50,288.74 -0.50,288.65 -0.50,288.54C-0.50,288.43 -0.50,288.34 -0.50,288.34Z" fill="#ff0000"/>
    <path d="M-22,289.69L22,289.69C22,289.69 22,289.78 22,289.89C22,290.00 22,290.09 22,290.09L-22,290.09C-22,290.09 -22,290.00 -22,289.89C-22,289.78 -22,289.69 -22,289.69Z" fill="#ff0000"/>
    <path d="M-0.50,291.04L0.50,291.04C0.50,291.04 0.50,291.13 0.50,291.24C0.50,291.35 0.50,291.44 0.50,291.44L-0.50,291.44C-0.50,291.44 -0.50,291.35 -0.50,291.24C-0.50,291.13 -0.50,291.04 -0.50,291.04Z" fill="#ff0000"/>
    <path d="M-37.50,292.38L37.50,292.38C37.50,292.38 37.50,292.47 37.50,292.58C37.50,292.69 37.50,292.78 37.50,292.78L-37.50,292.78C-37.50,292.78 -37.50,292.69 -37.50,292.58C-37.50,292.47 -37.50,292.38 -37.50,292.38Z" fill="#ff0000"/>
    <path d="M-23,293.73L23,293.73C23,293.73 23,293.82 23,293.93C23,294.04 23,294.13 23,294.13L-23,294.13C-23,294.13 -23,294.04 -23,293.93C-23,293.82 -23,293.73 -23,293.73Z" fill="#ff0000"/>
    <path d="M-51,295.08L51,295.08C51,295.08 51,295.17 51,295.28C51,295.39 51,295.48 51,295.48L-51,295.48C-51,295.48 -51,295.39 -51,295.28C-51,295.17 -51,295.08 -51,295.08Z" fill="#ff0000"/>
    <path d="M-2,296.43L2,296.43C2,296.43 2,296.52 2,296.63C2,296.74 2,296.83 2,296.83L-2,296.83C-2,296.83 -2,296.74 -2,296.63C-2,296.52 -2,296.43 -2,296.43Z" fill="#ff0000"/>
    <path d="M-37.50,297.78L37.50,297.78C37.50,297.78 37.50,297.87 37.50,297.98C37.50,298.09 37.50,298.18 37.50,298.18L-37.50,298.18C-37.50,298.18 -37.50,298.09 -37.50,297.98C-37.50,297.87 -37.50,297.78 -37.50,297.78Z" fill="#ff0000"/>
    <path d="M-0.50,299.13L0.50,299.13C0.50,299.13 0.50,299.22 0.50,299.33C0.50,299.44 0.50,299.53 0.50,299.53L-0.50,299.53C-0.50,299.53 -0.50,299.44 -0.50,299.33C-0.50,299.22 -0.50,299.13 -0.50,299.13Z" fill="#ff0000"/>
    <path d="M-58,300.47L58,300.47C58,300.47 58,300.56 58,300.67C58,300.78 58,300.87 58,300.87L-58,300.87C-58,300.87 -58,300.78 -58,300.67C-58,300.56 -58,300.47 -58,300.47Z" fill="#ff0000"/>
    <path d="M-2,301.82L2,301.82C2,301.82 2,301.91 2,302.02C2,302.13 2,302.22 2,302.22L-2,302.22C-2,302.22 -2,302.13 -2,302.02C-2,301.91 -2,301.82 -2,301.82Z" fill="#ff0000"/>
    <path d="M-7,303.17L7,303.17C7,303.17 7,303.26 7,303.37C7,303.48 7,303.57 7,303.57L-7,303.57C-7,303.57 -7,303.48 -7,303.37C-7,303.26 -7,303.17 -7,303.17Z" fill="#ff0000"/>
    <path d="M-10.50,304.52L10.50,304.52C10.50,304.52 10.50,304.61 10.50,304.72C10.50,304.83 10.50,304.92 10.50,304.92L-10.50,304.92C-10.50,304.92 -10.50,304.83 -10.50,304.72C-10.50,304.61 -10.50,304.52 -10.50,304.52Z" fill="#ff0000"/>
    <path d="M-1,305.87L1,305.87C1,305.87 1,305.96 1,306.07C1,306.18 1,306.27 1,306.27L-1,306.27C-1,306.27 -1,306.18 -1,306.07C-1,305.96 -1,305.87 -1,305.87Z" fill="#ff0000"/>
    <path d="M-70.50,307.22L70.50,307.22C70.50,307.22 70.50,307.31 70.50,307.42C70.50,307.53 70.50,307.62 70.50,307.62L-70.50,307.62C-70.50,307.62 -70.50,307.53 -70.50,307.42C-70.50,307.31 -70.50,307.22 -70.50,307.22Z" fill="#ff0000"/>
    <path d="M-74,308.56L74,308.56C74,308.56 74,308.65 74,308.76C74,308.87 74,308.96 74,308.96L-74,308.96C-74,308.96 -74,308.87 -74,308.76C-74,308.65 -74,308.56 -74,308.56Z" fill="#ff0000"/>
    <path d="M-18.50,309.91L18.50,309.91C18.50,309.91 18.50,310.00 18.50,310.11C18.50,310.22 18.50,310.31 18.50,310.31L-18.50,310.31C-18.50,310.31 -18.50,310.22 -18.50,310.11C-18.50,310.00 -18.50,309.91 -18.50,309.91Z" fill="#ff0000"/>
    <path d="M-0.50,311.26L0.50,311.26C0.50,311.26 0.50,311.35 0.50,311.46C0.50,311.57 0.50,311.66 0.50,311.66L-0.50,311.66C-0.50,311.66 -0.50,311.57 -0.50,311.46C-0.50,311.35 -0.50,311.26 -0.50,311.26Z" fill="#ff0000"/>
    <path d="M-21.50,312.61L21.50,312.61C21.50,312.61 21.50,312.70 21.50,312.81C21.50,312.92 21.50,313.01 21.50,313.01L-21.50,313.01C-21.50,313.01 -21.50,312.92 -21.50,312.81C-21.50,312.70 -21.50,312.61 -21.50,312.61Z" fill="#ff0000"/>
    <path d="M-0.50,313.96L0.50,313.96C0.50,313.96 0.50,314.05 0.50,314.16C0.50,314.27 0.50,314.36 0.50,314.36L-0.50,314.36C-0.50,314.36 -0.50,314.27 -0.50,314.16C-0.50,314.05 -0.50,313.96 -0.50,313.96Z" fill="#ff0000"/>
    <path d="M-9.50,315.31L9.50,315.31C9.50,315.31 9.50,315.40 9.50,315.51C9.50,315.62 9.50,315.71 9.50,315.71L-9.50,315.71C-9.50,315.71 -9.50,315.62 -9.50,315.51C-9.50,315.40 -9.50,315.31 -9.50,315.31Z" fill="#ff0000"/>
    <path d="M-1,316.65L1,316.65C1,316.65 1,316.74 1,316.85C1,316.96 1,317.05 1,317.05L-1,317.05C-1,317.05 -1,316.96 -1,316.85C-1,316.74 -1,316.65 -1,316.65Z" fill="#ff0000"/>
    <path d="M-2,318.00L2,318.00C2,318.00 2,318.09 2,318.20C2,318.31 2,318.40 2,318.40L-2,318.40C-2,318.40 -2,318.31 -2,318.20C-2,318.09 -2,318.00 -2,318.00Z" fill="#ff0000"/>
    <path d="M-27.50,319.35L27.50,319.35C27.50,319.35 27.50,319.44 27.50,319.55C27.50,319.66 27.50,319.75 27.50,319.75L-27.50,319.75C-27.50,319.75 -27.50,319.66 -27.50,319.55C-27.50,319.44 -27.50,319.35 -27.50,319.35Z" fill="#ff0000"/>
    <path d="M-12.50,320.70L12.50,320.70C12.50,320.70 12.50,320.79 12.50,320.90C12.50,321.01 12.50,321.10 12.50,321.10L-12.50,321.10C-12.50,321.10 -12.50,321.01 -12.50,320.90C-12.50,320.79 -12.50,320.70 -12.50,320.70Z" fill="#ff0000"/>
    <path d="M-1,322.05L1,322.05C1,322.05 1,322.14 1,322.25C1,322.36 1,322.45 1,322.45L-1,322.45C-1,322.45 -1,322.36 -1,322.25C-1,322.14 -1,322.05 -1,322.05Z" fill="#ff0000"/>
    <path d="M-4.50,323.40L4.50,323.40C4.50,323.40 4.50,323.49 4.50,323.60C4.50,323.71 4.50,323.80 4.50,323.80L-4.50,323.80C-4.50,323.80 -4.50,323.71 -4.50,323.60C-4.50,323.49 -4.50,323.40 -4.50,323.40Z" fill="#ff0000"/>
    <path d="M-8.50,324.74L8.50,324.74C8.50,324.74 8.50,324.83 8.50,324.94C8.50,325.05 8.50,325.14 8.50,325.14L-8.50,325.14C-8.50,325.14 -8.50,325.05 -8.50,324.94C-8.50,324.83 -8.50,324.74 -8.50,324.74Z" fill="#ff0000"/>
    <path d="M-1.50,326.09L1.50,326.09C1.50,326.09 1.50,326.18 1.50,326.29C1.50,326.40 1.50,326.49 1.50,326.49L-1.50,326.49C-1.50,326.49 -1.50,326.40 -1.50,326.29C-1.50,326.18 -1.50,326.09 -1.50,326.09Z" fill="#ff0000"/>
    <path d="M-13.50,327.44L13.50,327.44C13.50,327.44 13.50,327.53 13.50,327.64C13.50,327.75 13.50,327.84 13.50,327.84L-13.50,327.84C-13.50,327.84 -13.50,327.75 -13.50,327.64C-13.50,327.53 -13.50,327.44 -13.50,327.44Z" fill="#ff0000"/>
    <path d="M-30,328.79L30,328.79C30,328.79 30,328.88 30,328.99C30,329.10 30,329.19 30,329.19L-30,329.19C-30,329.19 -30,329.10 -30,328.99C-30,328.88 -30,328.79 -30,328.79Z" fill="#ff0000"/>
    <path d="M-8,330.14L8,330.14C8,330.14 8,330.23 8,330.34C8,330.45 8,330.54 8,330.54L-8,330.54C-8,330.54 -8,330.45 -8,330.34C-8,330.23 -8,330.14 -8,330.14Z" fill="#ff0000"/>
    <path d="M-60.50,331.49L60.50,331.49C60.50,331.49 60.50,331.57 60.50,331.69C60.50,331.80 60.50,331.89 60.50,331.89L-60.50,331.89C-60.50,331.89 -60.50,331.80 -60.50,331.69C-60.50,331.57 -60.50,331.49 -60.50,331.49Z" fill="#ff0000"/>
    <path d="M-80,332.83L80,332.83C80,332.83 80,332.92 80,333.03C80,333.14 80,333.23 80,333.23L-80,333.23C-80,333.23 -80,333.14 -80,333.03C-80,332.92 -80,332.83 -80,332.83Z" fill="#ff0000"/>
    <path d="M-20,334.18L20,334.18C20,334.18 20,334.27 20,334.38C20,334.49 20,334.58 20,334.58L-20,334.58C-20,334.58 -20,334.49 -20,334.38C-20,334.27 -20,334.18 -20,334.18Z" fill="#ff0000"/>
    <path d="M-74.50,335.53L74.50,335.53C74.50,335.53 74.50,335.62 74.50,335.73C74.50,335.84 74.50,335.93 74.50,335.93L-74.50,335.93C-74.50,335.93 -74.50,335.84 -74.50,335.73C-74.50,335.62 -74.50,335.53 -74.50,335.53Z" fill="#ff0000"/>
    <path d="M-54,336.88L54,336.88C54,336.88 54,336.97 54,337.08C54,337.19 54,337.28 54,337.28L-54,337.28C-54,337.28 -54,337.19 -54,337.08C-54,336.97 -54,336.88 -54,336.88Z" fill="#ff0000"/>
    <path d="M-11.50,338.23L11.50,338.23C11.50,338.23 11.50,338.32 11.50,338.43C11.50,338.54 11.50,338.63 11.50,338.63L-11.50,338.63C-11.50,338.63 -11.50,338.54 -11.50,338.43C-11.50,338.32 -11.50,338.23 -11.50,338.23Z" fill="#ff0000"/>
    <path d="M-0.50,339.58L0.50,339.58C0.50,339.58 0.50,339.66 0.50,339.78C0.50,339.89 0.50,339.98 0.50,339.98L-0.50,339.98C-0.50,339.98 -0.50,339.89 -0.50,339.78C-0.50,339.66 -0.50,339.58 -0.50,339.58Z" fill="#ff0000"/>
    <path d="M-56.50,340.92L56.50,340.92C56.50,340.92 56.50,341.01 56.50,341.12C56.50,341.23 56.50,341.32 56.50,341.32L-56.50,341.32C-56.50,341.32 -56.50,341.23 -56.50,341.12C-56.50,341.01 -56.50,340.92 -56.50,340.92Z" fill="#ff0000"/>
    <path d="M-4.50,342.27L4.50,342.27C4.50,342.27 4.50,342.36 4.50,342.47C4.50,342.58 4.50,342.67 4.50,342.67L-4.50,342.67C-4.50,342.67 -4.50,342.58 -4.50,342.47C-4.50,342.36 -4.50,342.27 -4.50,342.27Z" fill="#ff0000"/>
    <path d="M-22.50,343.62L22.50,343.62C22.50,343.62 22.50,343.71 22.50,343.82C22.50,343.93 22.50,344.02 22.50,344.02L-22.50,344.02C-22.50,344.02 -22.50,343.93 -22.50,343.82C-22.50,343.71 -22.50,343.62 -22.50,343.62Z" fill="#ff0000"/>
    <path d="M-8.50,344.97L8.50,344.97C8.50,344.97 8.50,345.06 8.50,345.17C8.50,345.28 8.50,345.37 8.50,345.37L-8.50,345.37C-8.50,345.37 -8.50,345.28 -8.50,345.17C-8.50,345.06 -8.50,344.97 -8.50,344.97Z" fill="#ff0000"/>
    <path d="M-85,346.32L85,346.32C85,346.32 85,346.41 85,346.52C85,346.63 85,346.72 85,346.72L-85,346.72C-85,346.72 -85,346.63 -85,346.52C-85,346.41 -85,346.32 -85,346.32Z" fill="#ff0000"/>
    <path d="M-14,347.67L14,347.67C14,347.67 14,347.75 14,347.87C14,347.98 14,348.07 14,348.07L-14,348.07C-14,348.07 -14,347.98 -14,347.87C-14,347.75 -14,347.67 -14,347.67Z" fill="#ff0000"/>
    <path d="M-2,349.01L2,349.01C2,349.01 2,349.10 2,349.21C2,349.32 2,349.41 2,349.41L-2,349.41C-2,349.41 -2,349.32 -2,349.21C-2,349.10 -2,349.01 -2,349.01Z" fill="#ff0000"/>
    <path d="M-48,350.36L48,350.36C48,350.36 48,350.45 48,350.56C48,350.67 48,350.76 48,350.76L-48,350.76C-48,350.76 -48,350.67 -48,350.56C-48,350.45 -48,350.36 -48,350.36Z" fill="#ff0000"/>
    <path d="M-6,351.71L6,351.71C6,351.71 6,351.80 6,351.91C6,352.02 6,352.11 6,352.11L-6,352.11C-6,352.11 -6,352.02 -6,351.91C-6,351.80 -6,351.71 -6,351.71Z" fill="#ff0000"/>
    <path d="M-51,353.06L51,353.06C51,353.06 51,353.15 51,353.26C51,353.37 51,353.46 51,353.46L-51,353.46C-51,353.46 -51,353.37 -51,353.26C-51,353.15 -51,353.06 -51,353.06Z" fill="#ff0000"/>
    <path d="M-10.50,354.41L10.50,354.41C10.50,354.41 10.50,354.50 10.50,354.61C10.50,354.72 10.50,354.81 10.50,354.81L-10.50,354.81C-10.50,354.81 -10.50,354.72 -10.50,354.61C-10.50,354.50 -10.50,354.41 -10.50,354.41Z" fill="#ff0000"/>
    <path d="M-3,355.76L3,355.76C3,355.76 3,355.84 3,355.96C3,356.07 3,356.16 3,356.16L-3,356.16C-3,356.16 -3,356.07 -3,355.96C-3,355.84 -3,355.76 -3,355.76Z" fill="#ff0000"/>
    <path d="M-57,357.10L57,357.10C57,357.10 57,357.19 57,357.30C57,357.41 57,357.50 57,357.50L-57,357.50C-57,357.50 -57,357.41 -57,357.30C-57,357.19 -57,357.10 -57,357.10Z" fill="#ff0000"/>
    <path d="M-0.50,358.45L0.50,358.45C0.50,358.45 0.50,358.54 0.50,358.65C0.50,358.76 0.50,358.85 0.50,358.85L-0.50,358.85C-0.50,358.85 -0.50,358.76 -0.50,358.65C-0.50,358.54 -0.50,358.45 -0.50,358.45Z" fill="#ff0000"/>
    <path d="M-10,359.80L10,359.80C10,359.80 10,359.89 10,360.00C10,360.11 10,360.20 10,360.20L-10,360.20C-10,360.20 -10,360.11 -10,360.00C-10,359.89 -10,359.80 -10,359.80Z" fill="#ff0000"/>
    <path d="M-45,361.15L45,361.15C45,361.15 45,361.24 45,361.35C45,361.46 45,361.55 45,361.55L-45,361.55C-45,361.55 -45,361.46 -45,361.35C-45,361.24 -45,361.15 -45,361.15Z" fill="#ff0000"/>
    <path d="M-8.50,362.50L8.50,362.50C8.50,362.50 8.50,362.59 8.50,362.70C8.50,362.81 8.50,362.90 8.50,362.90L-8.50,362.90C-8.50,362.90 -8.50,362.81 -8.50,362.70C-8.50,362.59 -8.50,362.50 -8.50,362.50Z" fill="#ff0000"/>
    <path d="M-6.50,363.84L6.50,363.84C6.50,363.84 6.50,363.93 6.50,364.04C6.50,364.16 6.50,364.24 6.50,364.24L-6.50,364.24C-6.50,364.24 -6.50,364.16 -6.50,364.04C-6.50,363.93 -6.50,363.84 -6.50,363.84Z" fill="#ff0000"/>
    <path d="M-23,365.19L23,365.19C23,365.19 23,365.28 23,365.39C23,365.50 23,365.59 23,365.59L-23,365.59C-23,365.59 -23,365.50 -23,365.39C-23,365.28 -23,365.19 -23,365.19Z" fill="#ff0000"/>
    <path d="M-6.50,366.54L6.50,366.54C6.50,366.54 6.50,366.63 6.50,366.74C6.50,366.85 6.50,366.94 6.50,366.94L-6.50,366.94C-6.50,366.94 -6.50,366.85 -6.50,366.74C-6.50,366.63 -6.50,366.54 -6.50,366.54Z" fill="#ff0000"/>
    <path d="M-2.50,367.89L2.50,367.89C2.50,367.89 2.50,367.98 2.50,368.09C2.50,368.20 2.50,368.29 2.50,368.29L-2.50,368.29C-2.50,368.29 -2.50,368.20 -2.50,368.09C-2.50,367.98 -2.50,367.89 -2.50,367.89Z" fill="#ff0000"/>
    <path d="M-15,369.24L15,369.24C15,369.24 15,369.33 15,369.44C15,369.55 15,369.64 15,369.64L-15,369.64C-15,369.64 -15,369.55 -15,369.44C-15,369.33 -15,369.24 -15,369.24Z" fill="#ff0000"/>
    <path d="M-4.50,370.59L4.50,370.59C4.50,370.59 4.50,370.68 4.50,370.79C4.50,370.90 4.50,370.99 4.50,370.99L-4.50,370.99C-4.50,370.99 -4.50,370.90 -4.50,370.79C-4.50,370.68 -4.50,370.59 -4.50,370.59Z" fill="#ff0000"/>
    <path d="M-77,371.93L77,371.93C77,371.93 77,372.02 77,372.13C77,372.25 77,372.33 77,372.33L-77,372.33C-77,372.33 -77,372.25 -77,372.13C-77,372.02 -77,371.93 -77,371.93Z" fill="#ff0000"/>
    <path d="M-32.50,373.28L32.50,373.28C32.50,373.28 32.50,373.37 32.50,373.48C32.50,373.59 32.50,373.68 32.50,373.68L-32.50,373.68C-32.50,373.68 -32.50,373.59 -32.50,373.48C-32.50,373.37 -32.50,373.28 -32.50,373.28Z" fill="#ff0000"/>
    <path d="M-44,374.63L44,374.63C44,374.63 44,374.72 44,374.83C44,374.94 44,375.03 44,375.03L-44,375.03C-44,375.03 -44,374.94 -44,374.83C-44,374.72 -44,374.63 -44,374.63Z" fill="#ff0000"/>
    <path d="M-4.50,375.98L4.50,375.98C4.50,375.98 4.50,376.07 4.50,376.18C4.50,376.29 4.50,376.38 4.50,376.38L-4.50,376.38C-4.50,376.38 -4.50,376.29 -4.50,376.18C-4.50,376.07 -4.50,375.98 -4.50,375.98Z" fill="#ff0000"/>
    <path d="M-114,377.33L114,377.33C114,377.33 114,377.42 114,377.53C114,377.64 114,377.73 114,377.73L-114,377.73C-114,377.73 -114,377.64 -114,377.53C-114,377.42 -114,377.33 -114,377.33Z" fill="#ff0000"/>
    <path d="M-76,378.68L76,378.68C76,378.68 76,378.77 76,378.88C76,378.99 76,379.08 76,379.08L-76,379.08C-76,379.08 -76,378.99 -76,378.88C-76,378.77 -76,378.68 -76,378.68Z" fill="#ff0000"/>
    <path d="M-8,380.02L8,380.02C8,380.02 8,380.11 8,380.22C8,380.34 8,380.42 8,380.42L-8,380.42C-8,380.42 -8,380.34 -8,380.22C-8,380.11 -8,380.02 -8,380.02Z" fill="#ff0000"/>
    <path d="M-7.50,381.37L7.50,381.37C7.50,381.37 7.50,381.46 7.50,381.57C7.50,381.68 7.50,381.77 7.50,381.77L-7.50,381.77C-7.50,381.77 -7.50,381.68 -7.50,381.57C-7.50,381.46 -7.50,381.37 -7.50,381.37Z" fill="#ff0000"/>
    <path d="M-0.50,382.72L0.50,382.72C0.50,382.72 0.50,382.81 0.50,382.92C0.50,383.03 0.50,383.12 0.50,383.12L-0.50,383.12C-0.50,383.12 -0.50,383.03 -0.50,382.92C-0.50,382.81 -0.50,382.72 -0.50,382.72Z" fill="#ff0000"/>
    <path d="M-45,384.07L45,384.07C45,384.07 45,384.16 45,384.27C45,384.38 45,384.47 45,384.47L-45,384.47C-45,384.47 -45,384.38 -45,384.27C-45,384.16 -45,384.07 -45,384.07Z" fill="#ff0000"/>
    <path d="M-51.50,385.42L51.50,385.42C51.50,385.42 51.50,385.51 51.50,385.62C51.50,385.73 51.50,385.82 51.50,385.82L-51.50,385.82C-51.50,385.82 -51.50,385.73 -51.50,385.62C-51.50,385.51 -51.50,385.42 -51.50,385.42Z" fill="#ff0000"/>
    <path d="M-22,386.77L22,386.77C22,386.77 22,386.86 22,386.97C22,387.08 22,387.17 22,387.17L-22,387.17C-22,387.17 -22,387.08 -22,386.97C-22,386.86 -22,386.77 -22,386.77Z" fill="#ff0000"/>
    <path d="M-79,388.11L79,388.11C79,388.11 79,388.20 79,388.31C79,388.43 79,388.51 79,388.51L-79,388.51C-79,388.51 -79,388.43 -79,388.31C-79,388.20 -79,388.11 -79,388.11Z" fill="#ff0000"/>
    <path d="M-1,389.46L1,389.46C1,389.46 1,389.55 1,389.66C1,389.77 1,389.86 1,389.86L-1,389.86C-1,389.86 -1,389.77 -1,389.66C-1,389.55 -1,389.46 -1,389.46Z" fill="#ff0000"/>
    <path d="M-8.50,390.81L8.50,390.81C8.50,390.81 8.50,390.90 8.50,391.01C8.50,391.12 8.50,391.21 8.50,391.21L-8.50,391.21C-8.50,391.21 -8.50,391.12 -8.50,391.01C-8.50,390.90 -8.50,390.81 -8.50,390.81Z" fill="#ff0000"/>
    <path d="M-1.50,392.16L1.50,392.16C1.50,392.16 1.50,392.25 1.50,392.36C1.50,392.47 1.50,392.56 1.50,392.56L-1.50,392.56C-1.50,392.56 -1.50,392.47 -1.50,392.36C-1.50,392.25 -1.50,392.16 -1.50,392.16Z" fill="#ff0000"/>
    <path d="M-38.50,393.51L38.50,393.51C38.50,393.51 38.50,393.60 38.50,393.71C38.50,393.82 38.50,393.91 38.50,393.91L-38.50,393.91C-38.50,393.91 -38.50,393.82 -38.50,393.71C-38.50,393.60 -38.50,393.51 -38.50,393.51Z" fill="#ff0000"/>
    <path d="M-12.50,394.86L12.50,394.86C12.50,394.86 12.50,394.95 12.50,395.06C12.50,395.17 12.50,395.26 12.50,395.26L-12.50,395.26C-12.50,395.26 -12.50,395.17 -12.50,395.06C-12.50,394.95 -12.50,394.86 -12.50,394.86Z" fill="#ff0000"/>
    <path d="M-38.50,396.20L38.50,396.20C38.50,396.20 38.50,396.29 38.50,396.40C38.50,396.51 38.50,396.60 38.50,396.60L-38.50,396.60C-38.50,396.60 -38.50,396.51 -38.50,396.40C-38.50,396.29 -38.50,396.20 -38.50,396.20Z" fill="#ff0000"/>
    <path d="M-3.50,397.55L3.50,397.55C3.50,397.55 3.50,397.64 3.50,397.75C3.50,397.86 3.50,397.95 3.50,397.95L-3.50,397.95C-3.50,397.95 -3.50,397.86 -3.50,397.75C-3.50,397.64 -3.50,397.55 -3.50,397.55Z" fill="#ff0000"/>
    <path d="M-8,398.90L8,398.90C8,398.90 8,398.99 8,399.10C8,399.21 8,399.30 8,399.30L-8,399.30C-8,399.30 -8,399.21 -8,399.10C-8,398.99 -8,398.90 -8,398.90Z" fill="#ff0000"/>
    <path d="M-1.50,400.25L1.50,400.25C1.50,400.25 1.50,400.34 1.50,400.45C1.50,400.56 1.50,400.65 1.50,400.65L-1.50,400.65C-1.50,400.65 -1.50,400.56 -1.50,400.45C-1.50,400.34 -1.50,400.25 -1.50,400.25Z" fill="#ff0000"/>
    <path d="M-9.50,401.60L9.50,401.60C9.50,401.60 9.50,401.69 9.50,401.80C9.50,401.91 9.50,402.00 9.50,402.00L-9.50,402.00C-9.50,402.00 -9.50,401.91 -9.50,401.80C-9.50,401.69 -9.50,401.60 -9.50,401.60Z" fill="#ff0000"/>
    <path d="M-9,402.95L9,402.95C9,402.95 9,403.04 9,403.15C9,403.26 9,403.35 9,403.35L-9,403.35C-9,403.35 -9,403.26 -9,403.15C-9,403.04 -9,402.95 -9,402.95Z" fill="#ff0000"/>
    <path d="M-16.50,404.29L16.50,404.29C16.50,404.29 16.50,404.38 16.50,404.49C16.50,404.60 16.50,404.69 16.50,404.69L-16.50,404.69C-16.50,404.69 -16.50,404.60 -16.50,404.49C-16.50,404.38 -16.50,404.29 -16.50,404.29Z" fill="#ff0000"/>
    <path d="M-1,405.64L1,405.64C1,405.64 1,405.73 1,405.84C1,405.95 1,406.04 1,406.04L-1,406.04C-1,406.04 -1,405.95 -1,405.84C-1,405.73 -1,405.64 -1,405.64Z" fill="#ff0000"/>
    <path d="M-16,406.99L16,406.99C16,406.99 16,407.08 16,407.19C16,407.30 16,407.39 16,407.39L-16,407.39C-16,407.39 -16,407.30 -16,407.19C-16,407.08 -16,406.99 -16,406.99Z" fill="#ff0000"/>
    <path d="M-5,408.34L5,408.34C5,408.34 5,408.43 5,408.54C5,408.65 5,408.74 5,408.74L-5,408.74C-5,408.74 -5,408.65 -5,408.54C-5,408.43 -5,408.34 -5,408.34Z" fill="#ff0000"/>
    <path d="M-1,409.69L1,409.69C1,409.69 1,409.78 1,409.89C1,410.00 1,410.09 1,410.09L-1,410.09C-1,410.09 -1,410.00 -1,409.89C-1,409.78 -1,409.69 -1,409.69Z" fill="#ff0000"/>
    <path d="M-5,411.04L5,411.04C5,411.04 5,411.13 5,411.24C5,411.35 5,411.44 5,411.44L-5,411.44C-5,411.44 -5,411.35 -5,411.24C-5,411.13 -5,411.04 -5,411.04Z" fill="#ff0000"/>
    <path d="M-24.50,412.38L24.50,412.38C24.50,412.38 24.50,412.47 24.50,412.58C24.50,412.69 24.50,412.78 24.50,412.78L-24.50,412.78C-24.50,412.78 -24.50,412.69 -24.50,412.58C-24.50,412.47 -24.50,412.38 -24.50,412.38Z" fill="#ff0000"/>
    <path d="M-25,413.73L25,413.73C25,413.73 25,413.82 25,413.93C25,414.04 25,414.13 25,414.13L-25,414.13C-25,414.13 -25,414.04 -25,413.93C-25,413.82 -25,413.73 -25,413.73Z" fill="#ff0000"/>
    <path d="M-16.50,415.08L16.50,415.08C16.50,415.08 16.50,415.17 16.50,415.28C16.50,415.39 16.50,415.48 16.50,415.48L-16.50,415.48C-16.50,415.48 -16.50,415.39 -16.50,415.28C-16.50,415.17 -16.50,415.08 -16.50,415.08Z" fill="#ff0000"/>
    <path d="M-9,416.43L9,416.43C9,416.43 9,416.52 9,416.63C9,416.74 9,416.83 9,416.83L-9,416.83C-9,416.83 -9,416.74 -9,416.63C-9,416.52 -9,416.43 -9,416.43Z" fill="#ff0000"/>
    <path d="M-149,417.78L149,417.78C149,417.78 149,417.87 149,417.98C149,418.09 149,418.18 149,418.18L-149,418.18C-149,418.18 -149,418.09 -149,417.98C-149,417.87 -149,417.78 -149,417.78Z" fill="#ff0000"/>
    <path d="M-24,419.13L24,419.13C24,419.13 24,419.22 24,419.33C24,419.44 24,419.53 24,419.53L-24,419.53C-24,419.53 -24,419.44 -24,419.33C-24,419.22 -24,419.13 -24,419.13Z" fill="#ff0000"/>
    <path d="M-58,420.47L58,420.47C58,420.47 58,420.56 58,420.67C58,420.78 58,420.87 58,420.87L-58,420.87C-58,420.87 -58,420.78 -58,420.67C-58,420.56 -58,420.47 -58,420.47Z" fill="#ff0000"/>
    <path d="M-19.50,421.82L19.50,421.82C19.50,421.82 19.50,421.91 19.50,422.02C19.50,422.13 19.50,422.22 19.50,422.22L-19.50,422.22C-19.50,422.22 -19.50,422.13 -19.50,422.02C-19.50,421.91 -19.50,421.82 -19.50,421.82Z" fill="#ff0000"/>
    <path d="M-81,423.17L81,423.17C81,423.17 81,423.26 81,423.37C81,423.48 81,423.57 81,423.57L-81,423.57C-81,423.57 -81,423.48 -81,423.37C-81,423.26 -81,423.17 -81,423.17Z" fill="#ff0000"/>
    <path d="M-75,424.52L75,424.52C75,424.52 75,424.61 75,424.72C75,424.83 75,424.92 75,424.92L-75,424.92C-75,424.92 -75,424.83 -75,424.72C-75,424.61 -75,424.52 -75,424.52Z" fill="#ff0000"/>
    <path d="M-21.50,425.87L21.50,425.87C21.50,425.87 21.50,425.96 21.50,426.07C21.50,426.18 21.50,426.27 21.50,426.27L-21.50,426.27C-21.50,426.27 -21.50,426.18 -21.50,426.07C-21.50,425.96 -21.50,425.87 -21.50,425.87Z" fill="#ff0000"/>
    <path d="M-112,427.22L112,427.22C112,427.22 112,427.31 112,427.42C112,427.53 112,427.62 112,427.62L-112,427.62C-112,427.62 -112,427.53 -112,427.42C-112,427.31 -112,427.22 -112,427.22Z" fill="#ff0000"/>
    <path d="M-33,428.56L33,428.56C33,428.56 33,428.65 33,428.76C33,428.87 33,428.96 33,428.96L-33,428.96C-33,428.96 -33,428.87 -33,428.76C-33,428.65 -33,428.56 -33,428.56Z" fill="#ff0000"/>
    <path d="M-11.50,429.91L11.50,429.91C11.50,429.91 11.50,430.00 11.50,430.11C11.50,430.22 11.50,430.31 11.50,430.31L-11.50,430.31C-11.50,430.31 -11.50,430.22 -11.50,430.11C-11.50,430.00 -11.50,429.91 -11.50,429.91Z" fill="#ff0000"/>
    <path d="M-1,431.26L1,431.26C1,431.26 1,431.35 1,431.46C1,431.57 1,431.66 1,431.66L-1,431.66C-1,431.66 -1,431.57 -1,431.46C-1,431.35 -1,431.26 -1,431.26Z" fill="#ff0000"/>
    <path d="M-6,432.61L6,432.61C6,432.61 6,432.70 6,432.81C6,432.92 6,433.01 6,433.01L-6,433.01C-6,433.01 -6,432.92 -6,432.81C-6,432.70 -6,432.61 -6,432.61Z" fill="#ff0000"/>
    <path d="M-199.45,457.16L-199.55,457.16L-199.55,456.85C-199.55,456.82 -199.55,456.80 -199.55,456.78C-199.55,456.75 -199.56,456.74 -199.57,456.72C-199.57,456.71 -199.59,456.70 -199.60,456.69C-199.62,456.69 -199.64,456.68 -199.66,456.68C-199.69,456.68 -199.71,456.69 -199.74,456.70C-199.77,456.72 -199.79,456.73 -199.82,456.75L-199.82,457.16L-199.91,457.16L-199.91,456.40L-199.82,456.40L-199.82,456.67C-199.79,456.65 -199.76,456.63 -199.73,456.62C-199.70,456.60 -199.67,456.60 -199.63,456.60C-199.58,456.60 -199.53,456.61 -199.50,456.65C-199.47,456.69 -199.45,456.74 -199.45,456.80ZM-198.82,456.89L-199.22,456.89C-199.22,456.93 -199.22,456.96 -199.21,456.98C-199.20,457.01 -199.18,457.03 -199.17,457.04C-199.15,457.06 -199.13,457.07 -199.11,457.08C-199.08,457.09 -199.06,457.09 -199.03,457.09C-198.99,457.09 -198.95,457.08 -198.92,457.07C-198.88,457.05 -198.85,457.04 -198.84,457.02L-198.83,457.02L-198.83,457.12C-198.86,457.14 -198.89,457.15 -198.93,457.16C-198.96,457.17 -198.99,457.17 -199.03,457.17C-199.12,457.17 -199.19,457.15 -199.24,457.10C-199.29,457.05 -199.32,456.98 -199.32,456.89C-199.32,456.80 -199.29,456.73 -199.24,456.68C-199.19,456.62 -199.13,456.60 -199.05,456.60C-198.98,456.60 -198.92,456.62 -198.88,456.66C-198.84,456.70 -198.82,456.77 -198.82,456.84ZM-198.91,456.82C-198.91,456.78 -198.92,456.74 -198.95,456.71C-198.97,456.69 -199.01,456.67 -199.06,456.67C-199.10,456.67 -199.14,456.69 -199.17,456.72C-199.20,456.74 -199.22,456.78 -199.22,456.82ZM-198.59,457.16L-198.68,457.16L-198.68,456.40L-198.59,456.40ZM-198.31,457.16L-198.41,457.16L-198.41,456.40L-198.31,456.40ZM-197.67,456.88C-197.67,456.97 -197.69,457.04 -197.74,457.10C-197.78,457.15 -197.84,457.17 -197.92,457.17C-198.00,457.17 -198.06,457.15 -198.10,457.10C-198.15,457.04 -198.17,456.97 -198.17,456.88C-198.17,456.80 -198.15,456.73 -198.10,456.67C-198.06,456.62 -198.00,456.60 -197.92,456.60C-197.84,456.60 -197.78,456.62 -197.74,456.67C-197.69,456.73 -197.67,456.80 -197.67,456.88ZM-197.76,456.88C-197.76,456.81 -197.78,456.76 -197.80,456.73C-197.83,456.69 -197.87,456.68 -197.92,456.68C-197.97,456.68 -198.01,456.69 -198.03,456.73C-198.06,456.76 -198.08,456.81 -198.08,456.88C-198.08,456.95 -198.06,457.01 -198.03,457.04C-198.01,457.08 -197.97,457.09 -197.92,457.09C-197.87,457.09 -197.83,457.08 -197.80,457.04C-197.78,457.01 -197.76,456.95 -197.76,456.88Z"/>
    <path d="M-2,435.31L2,435.31C2,435.31 2,435.40 2,435.51C2,435.62 2,435.71 2,435.71L-2,435.71C-2,435.71 -2,435.62 -2,435.51C-2,435.40 -2,435.31 -2,435.31Z" fill="#ff0000"/>
    <path d="M-7.50,436.65L7.50,436.65C7.50,436.65 7.50,436.74 7.50,436.85C7.50,436.96 7.50,437.05 7.50,437.05L-7.50,437.05C-7.50,437.05 -7.50,436.96 -7.50,436.85C-7.50,436.74 -7.50,436.65 -7.50,436.65Z" fill="#ff0000"/>
    <path d="M-7,438.00L7,438.00C7,438.00 7,438.09 7,438.20C7,438.31 7,438.40 7,438.40L-7,438.40C-7,438.40 -7,438.31 -7,438.20C-7,438.09 -7,438.00 -7,438.00Z" fill="#ff0000"/>
    <path d="M-3,439.35L3,439.35C3,439.35 3,439.44 3,439.55C3,439.66 3,439.75 3,439.75L-3,439.75C-3,439.75 -3,439.66 -3,439.55C-3,439.44 -3,439.35 -3,439.35Z" fill="#ff0000"/>
    <path d="M-1.50,440.70L1.50,440.70C1.50,440.70 1.50,440.79 1.50,440.90C1.50,441.01 1.50,441.10 1.50,441.10L-1.50,441.10C-1.50,441.10 -1.50,441.01 -1.50,440.90C-1.50,440.79 -1.50,440.70 -1.50,440.70Z" fill="#ff0000"/>
    <path d="M-16,442.05L16,442.05C16,442.05 16,442.14 16,442.25C16,442.36 16,442.45 16,442.45L-16,442.45C-16,442.45 -16,442.36 -16,442.25C-16,442.14 -16,442.05 -16,442.05Z" fill="#ff0000"/>
    <path d="M-27.50,443.40L27.50,443.40C27.50,443.40 27.50,443.49 27.50,443.60C27.50,443.71 27.50,443.80 27.50,443.80L-27.50,443.80C-27.50,443.80 -27.50,443.71 -27.50,443.60C-27.50,443.49 -27.50,443.40 -27.50,443.40Z" fill="#ff0000"/>
    <path d="M-66,444.74L66,444.74C66,444.74 66,444.83 66,444.94C66,445.05 66,445.14 66,445.14L-66,445.14C-66,445.14 -66,445.05 -66,444.94C-66,444.83 -66,444.74 -66,444.74Z" fill="#ff0000"/>
    <path d="M-20.50,446.09L20.50,446.09C20.50,446.09 20.50,446.18 20.50,446.29C20.50,446.40 20.50,446.49 20.50,446.49L-20.50,446.49C-20.50,446.49 -20.50,446.40 -20.50,446.29C-20.50,446.18 -20.50,446.09 -20.50,446.09Z" fill="#ff0000"/>
    <path d="M-20.50,447.44L20.50,447.44C20.50,447.44 20.50,447.53 20.50,447.64C20.50,447.75 20.50,447.84 20.50,447.84L-20.50,447.84C-20.50,447.84 -20.50,447.75 -20.50,447.64C-20.50,447.53 -20.50,447.44 -20.50,447.44Z" fill="#ff0000"/>
    <path d="M-4.50,448.79L4.50,448.79C4.50,448.79 4.50,448.88 4.50,448.99C4.50,449.10 4.50,449.19 4.50,449.19L-4.50,449.19C-4.50,449.19 -4.50,449.10 -4.50,448.99C-4.50,448.88 -4.50,448.79 -4.50,448.79Z" fill="#ff0000"/>
    <path d="M-34,450.14L34,450.14C34,450.14 34,450.23 34,450.34C34,450.45 34,450.54 34,450.54L-34,450.54C-34,450.54 -34,450.45 -34,450.34C-34,450.23 -34,450.14 -34,450.14Z" fill="#ff0000"/>
    <path d="M-1.50,451.49L1.50,451.49C1.50,451.49 1.50,451.57 1.50,451.69C1.50,451.80 1.50,451.89 1.50,451.89L-1.50,451.89C-1.50,451.89 -1.50,451.80 -1.50,451.69C-1.50,451.57 -1.50,451.49 -1.50,451.49Z" fill="#ff0000"/>
    <path d="M-9.50,452.83L9.50,452.83C9.50,452.83 9.50,452.92 9.50,453.03C9.50,453.14 9.50,453.23 9.50,453.23L-9.50,453.23C-9.50,453.23 -9.50,453.14 -9.50,453.03C-9.50,452.92 -9.50,452.83 -9.50,452.83Z" fill="#ff0000"/>
    <path d="M-12,454.18L12,454.18C12,454.18 12,454.27 12,454.38C12,454.49 12,454.58 12,454.58L-12,454.58C-12,454.58 -12,454.49 -12,454.38C-12,454.27 -12,454.18 -12,454.18Z" fill="#ff0000"/>
    <path d="M-41,455.53L41,455.53C41,455.53 41,455.62 41,455.73C41,455.84 41,455.93 41,455.93L-41,455.93C-41,455.93 -41,455.84 -41,455.73C-41,455.62 -41,455.53 -41,455.53Z" fill="#ff0000"/>
    <path d="M-13.50,456.88L13.50,456.88C13.50,456.88 13.50,456.97 13.50,457.08C13.50,457.19 13.50,457.28 13.50,457.28L-13.50,457.28C-13.50,457.28 -13.50,457.19 -13.50,457.08C-13.50,456.97 -13.50,456.88 -13.50,456.88Z" fill="#ff0000"/>
    <path d="M-54,458.23L54,458.23C54,458.23 54,458.32 54,458.43C54,458.54 54,458.63 54,458.63L-54,458.63C-54,458.63 -54,458.54 -54,458.43C-54,458.32 -54,458.23 -54,458.23Z" fill="#ff0000"/>
    <path d="M-0.50,459.58L0.50,459.58C0.50,459.58 0.50,459.66 0.50,459.78C0.50,459.89 0.50,459.98 0.50,459.98L-0.50,459.98C-0.50,459.98 -0.50,459.89 -0.50,459.78C-0.50,459.66 -0.50,459.58 -0.50,459.58Z" fill="#ff0000"/>
    <path d="M-3,460.92L3,460.92C3,460.92 3,461.01 3,461.12C3,461.23 3,461.32 3,461.32L-3,461.32C-3,461.32 -3,461.23 -3,461.12C-3,461.01 -3,460.92 -3,460.92Z" fill="#ff0000"/>
    <path d="M-6,462.27L6,462.27C6,462.27 6,462.36 6,462.47C6,462.58 6,462.67 6,462.67L-6,462.67C-6,462.67 -6,462.58 -6,462.47C-6,462.36 -6,462.27 -6,462.27Z" fill="#ff0000"/>
    <path d="M-58,463.62L58,463.62C58,463.62 58,463.71 58,463.82C58,463.93 58,464.02 58,464.02L-58,464.02C-58,464.02 -58,463.93 -58,463.82C-58,463.71 -58,463.62 -58,463.62Z" fill="#ff0000"/>
    <path d="M-1.50,464.97L1.50,464.97C1.50,464.97 1.50,465.06 1.50,465.17C1.50,465.28 1.50,465.37 1.50,465.37L-1.50,465.37C-1.50,465.37 -1.50,465.28 -1.50,465.17C-1.50,465.06 -1.50,464.97 -1.50,464.97Z" fill="#ff0000"/>
    <path d="M-9,466.32L9,466.32C9,466.32 9,466.41 9,466.52C9,466.63 9,466.72 9,466.72L-9,466.72C-9,466.72 -9,466.63 -9,466.52C-9,466.41 -9,466.32 -9,466.32Z" fill="#ff0000"/>
    <path d="M-17.50,467.67L17.50,467.67C17.50,467.67 17.50,467.75 17.50,467.87C17.50,467.98 17.50,468.07 17.50,468.07L-17.50,468.07C-17.50,468.07 -17.50,467.98 -17.50,467.87C-17.50,467.75 -17.50,467.67 -17.50,467.67Z" fill="#ff0000"/>
    <path d="M-62.50,469.01L62.50,469.01C62.50,469.01 62.50,469.10 62.50,469.21C62.50,469.32 62.50,469.41 62.50,469.41L-62.50,469.41C-62.50,469.41 -62.50,469.32 -62.50,469.21C-62.50,469.10 -62.50,469.01 -62.50,469.01Z" fill="#ff0000"/>
    <path d="M-15.50,470.36L15.50,470.36C15.50,470.36 15.50,470.45 15.50,470.56C15.50,470.67 15.50,470.76 15.50,470.76L-15.50,470.76C-15.50,470.76 -15.50,470.67 -15.50,470.56C-15.50,470.45 -15.50,470.36 -15.50,470.36Z" fill="#ff0000"/>
    <path d="M-4,471.71L4,471.71C4,471.71 4,471.80 4,471.91C4,472.02 4,472.11 4,472.11L-4,472.11C-4,472.11 -4,472.02 -4,471.91C-4,471.80 -4,471.71 -4,471.71Z" fill="#ff0000"/>
    <path d="M-37.50,473.06L37.50,473.06C37.50,473.06 37.50,473.15 37.50,473.26C37.50,473.37 37.50,473.46 37.50,473.46L-37.50,473.46C-37.50,473.46 -37.50,473.37 -37.50,473.26C-37.50,473.15 -37.50,473.06 -37.50,473.06Z" fill="#ff0000"/>
    <path d="M-1.50,474.41L1.50,474.41C1.50,474.41 1.50,474.50 1.50,474.61C1.50,474.72 1.50,474.81 1.50,474.81L-1.50,474.81C-1.50,474.81 -1.50,474.72 -1.50,474.61C-1.50,474.50 -1.50,474.41 -1.50,474.41Z" fill="#ff0000"/>
    <path d="M-5,475.76L5,475.76C5,475.76 5,475.84 5,475.96C5,476.07 5,476.16 5,476.16L-5,476.16C-5,476.16 -5,476.07 -5,475.96C-5,475.84 -5,475.76 -5,475.76Z" fill="#ff0000"/>
    <path d="M-132,477.10L132,477.10C132,477.10 132,477.19 132,477.30C132,477.41 132,477.50 132,477.50L-132,477.50C-132,477.50 -132,477.41 -132,477.30C-132,477.19 -132,477.10 -132,477.10Z" fill="#ff0000"/>
    <path d="M-3.50,478.45L3.50,478.45C3.50,478.45 3.50,478.54 3.50,478.65C3.50,478.76 3.50,478.85 3.50,478.85L-3.50,478.85C-3.50,478.85 -3.50,478.76 -3.50,478.65C-3.50,478.54 -3.50,478.45 -3.50,478.45Z" fill="#ff0000"/>
    <path d="M-80,479.80L80,479.80C80,479.80 80,479.89 80,480C80,480.11 80,480.20 80,480.20L-80,480.20C-80,480.20 -80,480.11 -80,480C-80,479.89 -80,479.80 -80,479.80Z" fill="#ff0000"/>
    <path d="M-4.50,481.15L4.50,481.15C4.50,481.15 4.50,481.24 4.50,481.35C4.50,481.46 4.50,481.55 4.50,481.55L-4.50,481.55C-4.50,481.55 -4.50,481.46 -4.50,481.35C-4.50,481.24 -4.50,481.15 -4.50,481.15Z" fill="#ff0000"/>
    <path d="M-6,482.50L6,482.50C6,482.50 6,482.59 6,482.70C6,482.81 6,482.90 6,482.90L-6,482.90C-6,482.90 -6,482.81 -6,482.70C-6,482.59 -6,482.50 -6,482.50Z" fill="#ff0000"/>
    <path d="M-8.50,483.84L8.50,483.84C8.50,483.84 8.50,483.93 8.50,484.04C8.50,484.16 8.50,484.24 8.50,484.24L-8.50,484.24C-8.50,484.24 -8.50,484.16 -8.50,484.04C-8.50,483.93 -8.50,483.84 -8.50,483.84Z" fill="#ff0000"/>
    <path d="M-40,485.19L40,485.19C40,485.19 40,485.28 40,485.39C40,485.50 40,485.59 40,485.59L-40,485.59C-40,485.59 -40,485.50 -40,485.39C-40,485.28 -40,485.19 -40,485.19Z" fill="#ff0000"/>
    <path d="M-10.50,486.54L10.50,486.54C10.50,486.54 10.50,486.63 10.50,486.74C10.50,486.85 10.50,486.94 10.50,486.94L-10.50,486.94C-10.50,486.94 -10.50,486.85 -10.50,486.74C-10.50,486.63 -10.50,486.54 -10.50,486.54Z" fill="#ff0000"/>
    <path d="M-1,487.89L1,487.89C1,487.89 1,487.98 1,488.09C1,488.20 1,488.29 1,488.29L-1,488.29C-1,488.29 -1,488.20 -1,488.09C-1,487.98 -1,487.89 -1,487.89Z" fill="#ff0000"/>
    <path d="M-2.50,489.24L2.50,489.24C2.50,489.24 2.50,489.33 2.50,489.44C2.50,489.55 2.50,489.64 2.50,489.64L-2.50,489.64C-2.50,489.64 -2.50,489.55 -2.50,489.44C-2.50,489.33 -2.50,489.24 -2.50,489.24Z" fill="#ff0000"/>
    <path d="M-0.50,490.59L0.50,490.59C0.50,490.59 0.50,490.68 0.50,490.79C0.50,490.90 0.50,490.99 0.50,490.99L-0.50,490.99C-0.50,490.99 -0.50,490.90 -0.50,490.79C-0.50,490.68 -0.50,490.59 -0.50,490.59Z" fill="#ff0000"/>
    <path d="M-14,491.93L14,491.93C14,491.93 14,492.02 14,492.13C14,492.25 14,492.33 14,492.33L-14,492.33C-14,492.33 -14,492.25 -14,492.13C-14,492.02 -14,491.93 -14,491.93Z" fill="#ff0000"/>
    <path d="M-4,493.28L4,493.28C4,493.28 4,493.37 4,493.48C4,493.59 4,493.68 4,493.68L-4,493.68C-4,493.68 -4,493.59 -4,493.48C-4,493.37 -4,493.28 -4,493.28Z" fill="#ff0000"/>
    <path d="M-33,494.63L33,494.63C33,494.63 33,494.72 33,494.83C33,494.94 33,495.03 33,495.03L-33,495.03C-33,495.03 -33,494.94 -33,494.83C-33,494.72 -33,494.63 -33,494.63Z" fill="#ff0000"/>
    <path d="M-3,495.98L3,495.98C3,495.98 3,496.07 3,496.18C3,496.29 3,496.38 3,496.38L-3,496.38C-3,496.38 -3,496.29 -3,496.18C-3,496.07 -3,495.98 -3,495.98Z" fill="#ff0000"/>
    <path d="M-3.50,497.33L3.50,497.33C3.50,497.33 3.50,497.42 3.50,497.53C3.50,497.64 3.50,497.73 3.50,497.73L-3.50,497.73C-3.50,497.73 -3.50,497.64 -3.50,497.53C-3.50,497.42 -3.50,497.33 -3.50,497.33Z" fill="#ff0000"/>
    <path d="M-0.50,498.68L0.50,498.68C0.50,498.68 0.50,498.77 0.50,498.88C0.50,498.99 0.50,499.08 0.50,499.08L-0.50,499.08C-0.50,499.08 -0.50,498.99 -0.50,498.88C-0.50,498.77 -0.50,498.68 -0.50,498.68Z" fill="#ff0000"/>
    <path d="M-14,500.02L14,500.02C14,500.02 14,500.11 14,500.22C14,500.34 14,500.42 14,500.42L-14,500.42C-14,500.42 -14,500.34 -14,500.22C-14,500.11 -14,500.02 -14,500.02Z" fill="#ff0000"/>
    <path d="M-3.50,501.37L3.50,501.37C3.50,501.37 3.50,501.46 3.50,501.57C3.50,501.68 3.50,501.77 3.50,501.77L-3.50,501.77C-3.50,501.77 -3.50,501.68 -3.50,501.57C-3.50,501.46 -3.50,501.37 -3.50,501.37Z" fill="#ff0000"/>
    <path d="M-28.50,502.72L28.50,502.72C28.50,502.72 28.50,502.81 28.50,502.92C28.50,503.03 28.50,503.12 28.50,503.12L-28.50,503.12C-28.50,503.12 -28.50,503.03 -28.50,502.92C-28.50,502.81 -28.50,502.72 -28.50,502.72Z" fill="#ff0000"/>
    <path d="M-7,504.07L7,504.07C7,504.07 7,504.16 7,504.27C7,504.38 7,504.47 7,504.47L-7,504.47C-7,504.47 -7,504.38 -7,504.27C-7,504.16 -7,504.07 -7,504.07Z" fill="#ff0000"/>
    <path d="M-25.50,505.42L25.50,505.42C25.50,505.42 25.50,505.51 25.50,505.62C25.50,505.73 25.50,505.82 25.50,505.82L-25.50,505.82C-25.50,505.82 -25.50,505.73 -25.50,505.62C-25.50,505.51 -25.50,505.42 -25.50,505.42Z" fill="#ff0000"/>
    <path d="M-1,506.77L1,506.77C1,506.77 1,506.86 1,506.97C1,507.08 1,507.17 1,507.17L-1,507.17C-1,507.17 -1,507.08 -1,506.97C-1,506.86 -1,506.77 -1,506.77Z" fill="#ff0000"/>
    <path d="M-1.50,508.11L1.50,508.11C1.50,508.11 1.50,508.20 1.50,508.31C1.50,508.43 1.50,508.51 1.50,508.51L-1.50,508.51C-1.50,508.51 -1.50,508.43 -1.50,508.31C-1.50,508.20 -1.50,508.11 -1.50,508.11Z" fill="#ff0000"/>
    <path d="M-1,509.46L1,509.46C1,509.46 1,509.55 1,509.66C1,509.77 1,509.86 1,509.86L-1,509.86C-1,509.86 -1,509.77 -1,509.66C-1,509.55 -1,509.46 -1,509.46Z" fill="#ff0000"/>
    <path d="M-6,510.81L6,510.81C6,510.81 6,510.90 6,511.01C6,511.12 6,511.21 6,511.21L-6,511.21C-6,511.21 -6,511.12 -6,511.01C-6,510.90 -6,510.81 -6,510.81Z" fill="#ff0000"/>
    <path d="M-6.50,512.16L6.50,512.16C6.50,512.16 6.50,512.25 6.50,512.36C6.50,512.47 6.50,512.56 6.50,512.56L-6.50,512.56C-6.50,512.56 -6.50,512.47 -6.50,512.36C-6.50,512.25 -6.50,512.16 -6.50,512.16Z" fill="#ff0000"/>
    <path d="M-7.50,513.51L7.50,513.51C7.50,513.51 7.50,513.60 7.50,513.71C7.50,513.82 7.50,513.91 7.50,513.91L-7.50,513.91C-7.50,513.91 -7.50,513.82 -7.50,513.71C-7.50,513.60 -7.50,513.51 -7.50,513.51Z" fill="#ff0000"/>
    <path d="M-0.50,514.86L0.50,514.86C0.50,514.86 0.50,514.95 0.50,515.06C0.50,515.17 0.50,515.26 0.50,515.26L-0.50,515.26C-0.50,515.26 -0.50,515.17 -0.50,515.06C-0.50,514.95 -0.50,514.86 -0.50,514.86Z" fill="#ff0000"/>
    <path d="M-18,516.20L18,516.20C18,516.20 18,516.29 18,516.40C18,516.51 18,516.60 18,516.60L-18,516.60C-18,516.60 -18,516.51 -18,516.40C-18,516.29 -18,516.20 -18,516.20Z" fill="#ff0000"/>
    <path d="M-5,517.55L5,517.55C5,517.55 5,517.64 5,517.75C5,517.86 5,517.95 5,517.95L-5,517.95C-5,517.95 -5,517.86 -5,517.75C-5,517.64 -5,517.55 -5,517.55Z" fill="#ff0000"/>
    <path d="M-32.50,518.90L32.50,518.90C32.50,518.90 32.50,518.99 32.50,519.10C32.50,519.21 32.50,519.30 32.50,519.30L-32.50,519.30C-32.50,519.30 -32.50,519.21 -32.50,519.10C-32.50,518.99 -32.50,518.90 -32.50,518.90Z" fill="#ff0000"/>
    <path d="M-4,520.25L4,520.25C4,520.25 4,520.34 4,520.45C4,520.56 4,520.65 4,520.65L-4,520.65C-4,520.65 -4,520.56 -4,520.45C-4,520.34 -4,520.25 -4,520.25Z" fill="#ff0000"/>
    <path d="M-11,521.60L11,521.60C11,521.60 11,521.69 11,521.80C11,521.91 11,522.00 11,522.00L-11,522.00C-11,522.00 -11,521.91 -11,521.80C-11,521.69 -11,521.60 -11,521.60Z" fill="#ff0000"/>
    <path d="M-1.50,522.95L1.50,522.95C1.50,522.95 1.50,523.04 1.50,523.15C1.50,523.26 1.50,523.35 1.50,523.35L-1.50,523.35C-1.50,523.35 -1.50,523.26 -1.50,523.15C-1.50,523.04 -1.50,522.95 -1.50,522.95Z" fill="#ff0000"/>
    <path d="M-17,524.29L17,524.29C17,524.29 17,524.38 17,524.49C17,524.60 17,524.69 17,524.69L-17,524.69C-17,524.69 -17,524.60 -17,524.49C-17,524.38 -17,524.29 -17,524.29Z" fill="#ff0000"/>
    <path d="M-3,525.64L3,525.64C3,525.64 3,525.73 3,525.84C3,525.95 3,526.04 3,526.04L-3,526.04C-3,526.04 -3,525.95 -3,525.84C-3,525.73 -3,525.64 -3,525.64Z" fill="#ff0000"/>
    <path d="M-21,526.99L21,526.99C21,526.99 21,527.08 21,527.19C21,527.30 21,527.39 21,527.39L-21,527.39C-21,527.39 -21,527.30 -21,527.19C-21,527.08 -21,526.99 -21,526.99Z" fill="#ff0000"/>
    <path d="M-26.50,528.34L26.50,528.34C26.50,528.34 26.50,528.43 26.50,528.54C26.50,528.65 26.50,528.74 26.50,528.74L-26.50,528.74C-26.50,528.74 -26.50,528.65 -26.50,528.54C-26.50,528.43 -26.50,528.34 -26.50,528.34Z" fill="#ff0000"/>
    <path d="M-5.50,529.69L5.50,529.69C5.50,529.69 5.50,529.78 5.50,529.89C5.50,530.00 5.50,530.09 5.50,530.09L-5.50,530.09C-5.50,530.09 -5.50,530.00 -5.50,529.89C-5.50,529.78 -5.50,529.69 -5.50,529.69Z" fill="#ff0000"/>
    <path d="M-35.50,531.04L35.50,531.04C35.50,531.04 35.50,531.13 35.50,531.24C35.50,531.35 35.50,531.44 35.50,531.44L-35.50,531.44C-35.50,531.44 -35.50,531.35 -35.50,531.24C-35.50,531.13 -35.50,531.04 -35.50,531.04Z" fill="#ff0000"/>
    <path d="M-26,532.38L26,532.38C26,532.38 26,532.47 26,532.58C26,532.69 26,532.78 26,532.78L-26,532.78C-26,532.78 -26,532.69 -26,532.58C-26,532.47 -26,532.38 -26,532.38Z" fill="#ff0000"/>
    <path d="M-10,533.73L10,533.73C10,533.73 10,533.82 10,533.93C10,534.04 10,534.13 10,534.13L-10,534.13C-10,534.13 -10,534.04 -10,533.93C-10,533.82 -10,533.73 -10,533.73Z" fill="#ff0000"/>
    <path d="M-49,535.08L49,535.08C49,535.08 49,535.17 49,535.28C49,535.39 49,535.48 49,535.48L-49,535.48C-49,535.48 -49,535.39 -49,535.28C-49,535.17 -49,535.08 -49,535.08Z" fill="#ff0000"/>
    <path d="M-24.50,536.43L24.50,536.43C24.50,536.43 24.50,536.52 24.50,536.63C24.50,536.74 24.50,536.83 24.50,536.83L-24.50,536.83C-24.50,536.83 -24.50,536.74 -24.50,536.63C-24.50,536.52 -24.50,536.43 -24.50,536.43Z" fill="#ff0000"/>
    <path d="M-70.50,537.78L70.50,537.78C70.50,537.78 70.50,537.87 70.50,537.98C70.50,538.09 70.50,538.18 70.50,538.18L-70.50,538.18C-70.50,538.18 -70.50,538.09 -70.50,537.98C-70.50,537.87 -70.50,537.78 -70.50,537.78Z" fill="#ff0000"/>
    <path d="M-118.50,539.13L118.50,539.13C118.50,539.13 118.50,539.22 118.50,539.33C118.50,539.44 118.50,539.53 118.50,539.53L-118.50,539.53C-118.50,539.53 -118.50,539.44 -118.50,539.33C-118.50,539.22 -118.50,539.13 -118.50,539.13Z" fill="#ff0000"/>
    <path d="M-94.50,540.47L94.50,540.47C94.50,540.47 94.50,540.56 94.50,540.67C94.50,540.78 94.50,540.87 94.50,540.87L-94.50,540.87C-94.50,540.87 -94.50,540.78 -94.50,540.67C-94.50,540.56 -94.50,540.47 -94.50,540.47Z" fill="#ff0000"/>
    <path d="M-5,541.82L5,541.82C5,541.82 5,541.91 5,542.02C5,542.13 5,542.22 5,542.22L-5,542.22C-5,542.22 -5,542.13 -5,542.02C-5,541.91 -5,541.82 -5,541.82Z" fill="#ff0000"/>
    <path d="M-61.50,543.17L61.50,543.17C61.50,543.17 61.50,543.26 61.50,543.37C61.50,543.48 61.50,543.57 61.50,543.57L-61.50,543.57C-61.50,543.57 -61.50,543.48 -61.50,543.37C-61.50,543.26 -61.50,543.17 -61.50,543.17Z" fill="#ff0000"/>
    <path d="M-4.50,544.52L4.50,544.52C4.50,544.52 4.50,544.61 4.50,544.72C4.50,544.83 4.50,544.92 4.50,544.92L-4.50,544.92C-4.50,544.92 -4.50,544.83 -4.50,544.72C-4.50,544.61 -4.50,544.52 -4.50,544.52Z" fill="#ff0000"/>
    <path d="M-3,545.87L3,545.87C3,545.87 3,545.96 3,546.07C3,546.18 3,546.27 3,546.27L-3,546.27C-3,546.27 -3,546.18 -3,546.07C-3,545.96 -3,545.87 -3,545.87Z" fill="#ff0000"/>
    <path d="M-26.50,547.22L26.50,547.22C26.50,547.22 26.50,547.31 26.50,547.42C26.50,547.53 26.50,547.62 26.50,547.62L-26.50,547.62C-26.50,547.62 -26.50,547.53 -26.50,547.42C-26.50,547.31 -26.50,547.22 -26.50,547.22Z" fill="#ff0000"/>
    <path d="M-8,548.56L8,548.56C8,548.56 8,548.65 8,548.76C8,548.87 8,548.96 8,548.96L-8,548.96C-8,548.96 -8,548.87 -8,548.76C-8,548.65 -8,548.56 -8,548.56Z" fill="#ff0000"/>
    <path d="M-55,549.91L55,549.91C55,549.91 55,550.00 55,550.11C55,550.22 55,550.31 55,550.31L-55,550.31C-55,550.31 -55,550.22 -55,550.11C-55,550.00 -55,549.91 -55,549.91Z" fill="#ff0000"/>
    <path d="M-1.50,551.26L1.50,551.26C1.50,551.26 1.50,551.35 1.50,551.46C1.50,551.57 1.50,551.66 1.50,551.66L-1.50,551.66C-1.50,551.66 -1.50,551.57 -1.50,551.46C-1.50,551.35 -1.50,551.26 -1.50,551.26Z" fill="#ff0000"/>
    <path d="M-1,552.61L1,552.61C1,552.61 1,552.70 1,552.81C1,552.92 1,553.01 1,553.01L-1,553.01C-1,553.01 -1,552.92 -1,552.81C-1,552.70 -1,552.61 -1,552.61Z" fill="#ff0000"/>
    <path d="M-4.50,553.96L4.50,553.96C4.50,553.96 4.50,554.05 4.50,554.16C4.50,554.27 4.50,554.36 4.50,554.36L-4.50,554.36C-4.50,554.36 -4.50,554.27 -4.50,554.16C-4.50,554.05 -4.50,553.96 -4.50,553.96Z" fill="#ff0000"/>
    <path d="M-4,555.31L4,555.31C4,555.31 4,555.40 4,555.51C4,555.62 4,555.71 4,555.71L-4,555.71C-4,555.71 -4,555.62 -4,555.51C-4,555.40 -4,555.31 -4,555.31Z" fill="#ff0000"/>
    <path d="M-2.50,556.65L2.50,556.65C2.50,556.65 2.50,556.74 2.50,556.85C2.50,556.96 2.50,557.05 2.50,557.05L-2.50,557.05C-2.50,557.05 -2.50,556.96 -2.50,556.85C-2.50,556.74 -2.50,556.65 -2.50,556.65Z" fill="#ff0000"/>
    <path d="M-2.50,558.00L2.50,558.00C2.50,558.00 2.50,558.09 2.50,558.20C2.50,558.31 2.50,558.40 2.50,558.40L-2.50,558.40C-2.50,558.40 -2.50,558.31 -2.50,558.20C-2.50,558.09 -2.50,558.00 -2.50,558.00Z" fill="#ff0000"/>
    <path d="M-51.50,559.35L51.50,559.35C51.50,559.35 51.50,559.44 51.50,559.55C51.50,559.66 51.50,559.75 51.50,559.75L-51.50,559.75C-51.50,559.75 -51.50,559.66 -51.50,559.55C-51.50,559.44 -51.50,559.35 -51.50,559.35Z" fill="#ff0000"/>
    <path d="M-7,560.70L7,560.70C7,560.70 7,560.79 7,560.90C7,561.01 7,561.10 7,561.10L-7,561.10C-7,561.10 -7,561.01 -7,560.90C-7,560.79 -7,560.70 -7,560.70Z" fill="#ff0000"/>
    <path d="M-72,562.05L72,562.05C72,562.05 72,562.14 72,562.25C72,562.36 72,562.45 72,562.45L-72,562.45C-72,562.45 -72,562.36 -72,562.25C-72,562.14 -72,562.05 -72,562.05Z" fill="#ff0000"/>
    <path d="M-7,563.40L7,563.40C7,563.40 7,563.49 7,563.60C7,563.71 7,563.80 7,563.80L-7,563.80C-7,563.80 -7,563.71 -7,563.60C-7,563.49 -7,563.40 -7,563.40Z" fill="#ff0000"/>
    <path d="M-62.50,564.74L62.50,564.74C62.50,564.74 62.50,564.83 62.50,564.94C62.50,565.05 62.50,565.14 62.50,565.14L-62.50,565.14C-62.50,565.14 -62.50,565.05 -62.50,564.94C-62.50,564.83 -62.50,564.74 -62.50,564.74Z" fill="#ff0000"/>
    <path d="M-7,566.09L7,566.09C7,566.09 7,566.18 7,566.29C7,566.40 7,566.49 7,566.49L-7,566.49C-7,566.49 -7,566.40 -7,566.29C-7,566.18 -7,566.09 -7,566.09Z" fill="#ff0000"/>
    <path d="M-9,567.44L9,567.44C9,567.44 9,567.53 9,567.64C9,567.75 9,567.84 9,567.84L-9,567.84C-9,567.84 -9,567.75 -9,567.64C-9,567.53 -9,567.44 -9,567.44Z" fill="#ff0000"/>
    <path d="M-1.50,568.79L1.50,568.79C1.50,568.79 1.50,568.88 1.50,568.99C1.50,569.10 1.50,569.19 1.50,569.19L-1.50,569.19C-1.50,569.19 -1.50,569.10 -1.50,568.99C-1.50,568.88 -1.50,568.79 -1.50,568.79Z" fill="#ff0000"/>
    <path d="M-2.50,570.14L2.50,570.14C2.50,570.14 2.50,570.23 2.50,570.34C2.50,570.45 2.50,570.54 2.50,570.54L-2.50,570.54C-2.50,570.54 -2.50,570.45 -2.50,570.34C-2.50,570.23 -2.50,570.14 -2.50,570.14Z" fill="#ff0000"/>
    <path d="M-0.50,571.49L0.50,571.49C0.50,571.49 0.50,571.57 0.50,571.69C0.50,571.80 0.50,571.89 0.50,571.89L-0.50,571.89C-0.50,571.89 -0.50,571.80 -0.50,571.69C-0.50,571.57 -0.50,571.49 -0.50,571.49Z" fill="#ff0000"/>
    <path d="M-25,572.83L25,572.83C25,572.83 25,572.92 25,573.03C25,573.14 25,573.23 25,573.23L-25,573.23C-25,573.23 -25,573.14 -25,573.03C-25,572.92 -25,572.83 -25,572.83Z" fill="#ff0000"/>
    <path d="M-7.50,574.18L7.50,574.18C7.50,574.18 7.50,574.27 7.50,574.38C7.50,574.49 7.50,574.58 7.50,574.58L-7.50,574.58C-7.50,574.58 -7.50,574.49 -7.50,574.38C-7.50,574.27 -7.50,574.18 -7.50,574.18Z" fill="#ff0000"/>
    <path d="M-11.50,575.53L11.50,575.53C11.50,575.53 11.50,575.62 11.50,575.73C11.50,575.84 11.50,575.93 11.50,575.93L-11.50,575.93C-11.50,575.93 -11.50,575.84 -11.50,575.73C-11.50,575.62 -11.50,575.53 -11.50,575.53Z" fill="#ff0000"/>
    <path d="M-3.50,576.88L3.50,576.88C3.50,576.88 3.50,576.97 3.50,577.08C3.50,577.19 3.50,577.28 3.50,577.28L-3.50,577.28C-3.50,577.28 -3.50,577.19 -3.50,577.08C-3.50,576.97 -3.50,576.88 -3.50,576.88Z" fill="#ff0000"/>
    <path d="M-22,578.23L22,578.23C22,578.23 22,578.32 22,578.43C22,578.54 22,578.63 22,578.63L-22,578.63C-22,578.63 -22,578.54 -22,578.43C-22,578.32 -22,578.23 -22,578.23Z" fill="#ff0000"/>
    <path d="M-0.50,579.58L0.50,579.58C0.50,579.58 0.50,579.66 0.50,579.78C0.50,579.89 0.50,579.98 0.50,579.98L-0.50,579.98C-0.50,579.98 -0.50,579.89 -0.50,579.78C-0.50,579.66 -0.50,579.58 -0.50,579.58Z" fill="#ff0000"/>
    <path d="M-0.50,580.92L0.50,580.92C0.50,580.92 0.50,581.01 0.50,581.12C0.50,581.23 0.50,581.32 0.50,581.32L-0.50,581.32C-0.50,581.32 -0.50,581.23 -0.50,581.12C-0.50,581.01 -0.50,580.92 -0.50,580.92Z" fill="#ff0000"/>
    <path d="M-114,582.27L114,582.27C114,582.27 114,582.36 114,582.47C114,582.58 114,582.67 114,582.67L-114,582.67C-114,582.67 -114,582.58 -114,582.47C-114,582.36 -114,582.27 -114,582.27Z" fill="#ff0000"/>
    <path d="M-8,583.62L8,583.62C8,583.62 8,583.71 8,583.82C8,583.93 8,584.02 8,584.02L-8,584.02C-8,584.02 -8,583.93 -8,583.82C-8,583.71 -8,583.62 -8,583.62Z" fill="#ff0000"/>
    <path d="M-32.50,584.97L32.50,584.97C32.50,584.97 32.50,585.06 32.50,585.17C32.50,585.28 32.50,585.37 32.50,585.37L-32.50,585.37C-32.50,585.37 -32.50,585.28 -32.50,585.17C-32.50,585.06 -32.50,584.97 -32.50,584.97Z" fill="#ff0000"/>
    <path d="M-5,586.32L5,586.32C5,586.32 5,586.41 5,586.52C5,586.63 5,586.72 5,586.72L-5,586.72C-5,586.72 -5,586.63 -5,586.52C-5,586.41 -5,586.32 -5,586.32Z" fill="#ff0000"/>
    <path d="M-9.50,587.67L9.50,587.67C9.50,587.67 9.50,587.75 9.50,587.87C9.50,587.98 9.50,588.07 9.50,588.07L-9.50,588.07C-9.50,588.07 -9.50,587.98 -9.50,587.87C-9.50,587.75 -9.50,587.67 -9.50,587.67Z" fill="#ff0000"/>
    <path d="M-117,589.01L117,589.01C117,589.01 117,589.10 117,589.21C117,589.32 117,589.41 117,589.41L-117,589.41C-117,589.41 -117,589.32 -117,589.21C-117,589.10 -117,589.01 -117,589.01Z" fill="#ff0000"/>
    <path d="M-37,590.36L37,590.36C37,590.36 37,590.45 37,590.56C37,590.67 37,590.76 37,590.76L-37,590.76C-37,590.76 -37,590.67 -37,590.56C-37,590.45 -37,590.36 -37,590.36Z" fill="#ff0000"/>
    <path d="M-2,591.71L2,591.71C2,591.71 2,591.80 2,591.91C2,592.02 2,592.11 2,592.11L-2,592.11C-2,592.11 -2,592.02 -2,591.91C-2,591.80 -2,591.71 -2,591.71Z" fill="#ff0000"/>
    <path d="M-42.50,593.06L42.50,593.06C42.50,593.06 42.50,593.15 42.50,593.26C42.50,593.37 42.50,593.46 42.50,593.46L-42.50,593.46C-42.50,593.46 -42.50,593.37 -42.50,593.26C-42.50,593.15 -42.50,593.06 -42.50,593.06Z" fill="#ff0000"/>
    <path d="M-35,594.41L35,594.41C35,594.41 35,594.50 35,594.61C35,594.72 35,594.81 35,594.81L-35,594.81C-35,594.81 -35,594.72 -35,594.61C-35,594.50 -35,594.41 -35,594.41Z" fill="#ff0000"/>
    <path d="M-52,595.76L52,595.76C52,595.76 52,595.84 52,595.96C52,596.07 52,596.16 52,596.16L-52,596.16C-52,596.16 -52,596.07 -52,595.96C-52,595.84 -52,595.76 -52,595.76Z" fill="#ff0000"/>
    <path d="M-0.50,597.10L0.50,597.10C0.50,597.10 0.50,597.19 0.50,597.30C0.50,597.41 0.50,597.50 0.50,597.50L-0.50,597.50C-0.50,597.50 -0.50,597.41 -0.50,597.30C-0.50,597.19 -0.50,597.10 -0.50,597.10Z" fill="#ff0000"/>
    <path d="M-8,598.45L8,598.45C8,598.45 8,598.54 8,598.65C8,598.76 8,598.85 8,598.85L-8,598.85C-8,598.85 -8,598.76 -8,598.65C-8,598.54 -8,598.45 -8,598.45Z" fill="#ff0000"/>
    <path d="M-52,599.80L52,599.80C52,599.80 52,599.89 52,600C52,600.11 52,600.20 52,600.20L-52,600.20C-52,600.20 -52,600.11 -52,600C-52,599.89 -52,599.80 -52,599.80Z" fill="#ff0000"/>
</svg>